<?xml version="1.0" encoding="UTF-8"?>
<svg version="1.1" xmlns="http://www.w3.org/2000/svg" width="685" height="398">
<path d="M0 0 C1.15113281 0.36222656 2.30226563 0.72445312 3.48828125 1.09765625 C24.60573333 8.55831297 42.99300958 23.11021457 55 42 C55.51046875 42.73089844 56.0209375 43.46179688 56.546875 44.21484375 C69.39553447 63.58717826 72.45745057 91.25159746 68.0546875 113.62890625 C66.97689797 118.18366522 65.58595899 122.59888046 64 127 C63.60425781 128.134375 63.20851563 129.26875 62.80078125 130.4375 C52.90616596 156.20952122 31.61287839 174.82474771 7 186 C-18.57174058 196.44976034 -47.62311226 195.33873204 -73 185 C-98.23365112 173.61557541 -117.57354865 154.39118197 -127.75 128.57421875 C-134.5628579 109.09370318 -136.54338304 85.86761061 -130 66 C-129.6596875 64.93652344 -129.319375 63.87304688 -128.96875 62.77734375 C-119.68596874 36.46567659 -100.46078458 16.76369487 -75.5 4.75 C-51.93052028 -5.71268822 -24.70505193 -7.85219331 0 0 Z " fill="#074EAE" transform="translate(385,150)"/>
<path d="M0 0 C0.79792969 0.16886719 1.59585938 0.33773437 2.41796875 0.51171875 C8.72708053 2.62161747 11.66789478 6.30776832 15.375 11.5625 C15.84357422 12.20574219 16.31214844 12.84898438 16.79492188 13.51171875 C22.48874168 21.42732279 26.8897629 28.18622871 25.8125 38.3125 C23.12949858 45.51424066 18.01448057 49.4611915 11.5078125 53.203125 C10.91171677 53.54904694 10.31562103 53.89496887 9.70146179 54.25137329 C7.78412954 55.36215634 5.86087624 56.46222239 3.9375 57.5625 C2.60975455 58.33000059 1.28252616 59.09839636 -0.04418945 59.86767578 C-2.62469358 61.36348351 -5.20686138 62.85634058 -7.79052734 64.34667969 C-13.97079468 67.92318627 -20.08519718 71.60485782 -26.1875 75.3125 C-26.83525391 75.70501953 -27.48300781 76.09753906 -28.15039062 76.50195312 C-47.20455973 88.05588697 -66.05603654 99.93902013 -84.88427734 111.85644531 C-87.25055429 113.35236175 -89.61911005 114.8446096 -91.98828125 116.3359375 C-98.95198417 120.72176838 -105.90732693 125.11606338 -112.80249023 129.60913086 C-118.90576727 133.58515936 -125.03169263 137.51826526 -131.25 141.3125 C-131.83297852 141.67432373 -132.41595703 142.03614746 -133.01660156 142.40893555 C-139.25550594 146.17031278 -145.55895858 149.37814554 -152.94506836 148.05566406 C-159.13100079 146.00558477 -162.9172253 137.87725982 -166.125 132.5625 C-166.98649113 131.15725277 -167.84847297 129.75230627 -168.7109375 128.34765625 C-169.12827148 127.66461426 -169.54560547 126.98157227 -169.97558594 126.27783203 C-172.22567684 122.62891347 -174.57179551 119.04204126 -176.91015625 115.44921875 C-179.34220577 111.38092796 -179.59011633 107.98284943 -179.1875 103.3125 C-176.45727837 99.18481895 -173.505564 97.01159985 -169.25 94.5625 C-168.62085693 94.19600342 -167.99171387 93.82950684 -167.34350586 93.4519043 C-165.85232879 92.58372158 -164.35869924 91.71974405 -162.86328125 90.85888672 C-159.76451186 89.06804682 -156.67880987 87.25576112 -153.59375 85.44140625 C-140.89997687 77.97675837 -128.1814895 70.55446798 -115.45898438 63.13891602 C-108.35177873 58.99525152 -101.25496314 54.83437788 -94.16796875 50.65625 C-91.5073101 49.08786174 -88.84308509 47.52580882 -86.17578125 45.96875 C-70.74879672 36.95262064 -55.46520407 27.69462729 -40.375 18.125 C-38.08315824 16.67538043 -35.79114199 15.22603733 -33.49902344 13.77685547 C-31.91473336 12.77320402 -30.33213283 11.76688203 -28.75097656 10.75830078 C-26.34047666 9.22412899 -23.92130289 7.70454856 -21.5 6.1875 C-20.78158936 5.72577393 -20.06317871 5.26404785 -19.32299805 4.78833008 C-13.2754668 1.02836482 -7.26047515 -1.67002773 0 0 Z " fill="#0457BC" transform="translate(620.1875,48.6875)"/>
<path d="M0 0 C2.11629674 1.36336286 4.2335083 2.72530655 6.3515625 4.0859375 C7.42180664 4.77913086 8.49205078 5.47232422 9.59472656 6.18652344 C14.63578267 9.41922497 19.751656 12.52496078 24.875 15.625 C26.31516479 16.49898437 26.31516479 16.49898437 27.78442383 17.390625 C30.45904222 19.01275617 33.13531447 20.63210997 35.8125 22.25 C36.53260254 22.68538086 37.25270508 23.12076172 37.99462891 23.56933594 C45.51532302 28.11159204 53.07182234 32.59092565 60.6496582 37.03710938 C66.82265649 40.66097024 72.97882681 44.31285736 79.13409424 47.96673584 C88.29946799 53.4065778 97.477726 58.82302001 106.6875 64.1875 C108.11425049 65.01918701 108.11425049 65.01918701 109.56982422 65.86767578 C113.9102328 68.39699935 118.2515267 70.92477117 122.59619141 73.44677734 C125.91522899 75.37363293 129.2318462 77.30460318 132.54718018 79.23782349 C133.83582457 79.9882338 135.12531847 80.73718744 136.41571045 81.48458862 C138.2207483 82.5302643 140.02276001 83.58098602 141.82421875 84.6328125 C143.37822388 85.53604248 143.37822388 85.53604248 144.96362305 86.45751953 C153.23725931 91.66319589 153.23725931 91.66319589 154.3125 96 C154.4878125 96.61359375 154.663125 97.2271875 154.84375 97.859375 C154.74430348 105.46703343 149.62761277 112.05534022 145.5625 118.125 C144.98056885 119.00397949 144.3986377 119.88295898 143.79907227 120.78857422 C142.65477007 122.51213845 141.50656043 124.23311639 140.35400391 125.95117188 C139.07285278 127.86173871 137.804892 129.77985721 136.54296875 131.703125 C135.65544922 133.02570313 135.65544922 133.02570313 134.75 134.375 C134.26402344 135.09945312 133.77804688 135.82390625 133.27734375 136.5703125 C130.58864565 139.65335299 128.50656327 140.19048588 124.44140625 140.5390625 C111.48117674 139.50670837 98.10698989 127.86506282 87.54931641 121.01806641 C83.49079736 118.39614001 79.40254371 115.82235726 75.3125 113.25 C68.46779806 108.93443816 61.63738224 104.59682825 54.8125 100.25 C52.9479507 99.06374858 51.08336766 97.87755021 49.21875 96.69140625 C45.79931835 94.51601143 42.38289629 92.33602161 38.96875 90.15234375 C29.96200786 84.40778247 20.85932335 78.8636151 11.64331055 73.46118164 C3.3154555 68.5725119 -4.93514203 63.56086313 -13.17453003 58.525177 C-19.092226 54.90948691 -25.01535634 51.31605016 -31.05078125 47.8984375 C-31.92774658 47.40166504 -32.80471191 46.90489258 -33.70825195 46.39306641 C-35.30169275 45.49772685 -36.90013862 44.61120611 -38.50463867 43.73583984 C-43.47077624 40.95114325 -46.57035664 38.08000088 -49.4375 33.0625 C-51.21040214 26.41411698 -50.96119383 21.03052944 -47.75 14.875 C-36.30935162 -4.13865441 -36.30935162 -4.13865441 -25.4375 -8.125 C-15.66076162 -10.16206026 -7.84992778 -5.20550167 0 0 Z " fill="#0557BC" transform="translate(108.1875,56.75)"/>
<path d="M0 0 C2.03250331 2.29436181 3.79678449 4.74714113 5.5625 7.25 C6.03107422 7.89324219 6.49964844 8.53648438 6.98242188 9.19921875 C12.67624168 17.11482279 17.0772629 23.87372871 16 34 C13.31699858 41.20174066 8.20198057 45.1486915 1.6953125 48.890625 C1.09921677 49.23654694 0.50312103 49.58246887 -0.11103821 49.93887329 C-2.02837046 51.04965634 -3.95162376 52.14972239 -5.875 53.25 C-7.20274545 54.01750059 -8.52997384 54.78589636 -9.85668945 55.55517578 C-12.43719358 57.05098351 -15.01936138 58.54384058 -17.60302734 60.03417969 C-23.78329468 63.61068627 -29.89769718 67.29235782 -36 71 C-36.64775391 71.39251953 -37.29550781 71.78503906 -37.96289062 72.18945312 C-57.01705973 83.74338697 -75.86853654 95.62652013 -94.69677734 107.54394531 C-97.06305429 109.03986175 -99.43161005 110.5321096 -101.80078125 112.0234375 C-108.76448417 116.40926838 -115.71982693 120.80356338 -122.61499023 125.29663086 C-128.71826727 129.27265936 -134.84419263 133.20576526 -141.0625 137 C-141.64547852 137.36182373 -142.22845703 137.72364746 -142.82910156 138.09643555 C-149.06800594 141.85781278 -155.37145858 145.06564554 -162.75756836 143.74316406 C-168.94350079 141.69308477 -172.7297253 133.56475982 -175.9375 128.25 C-176.79899113 126.84475277 -177.66097297 125.43980627 -178.5234375 124.03515625 C-178.94077148 123.35211426 -179.35810547 122.66907227 -179.78808594 121.96533203 C-182.03817684 118.31641347 -184.38429551 114.72954126 -186.72265625 111.13671875 C-189.15470577 107.06842796 -189.40261633 103.67034943 -189 99 C-186.02282119 94.33226237 -182.25555202 92.0357724 -177.5625 89.375 C-176.90701172 88.9934375 -176.25152344 88.611875 -175.57617188 88.21875 C-174.30176367 87.4773691 -173.02474841 86.74044721 -171.74487305 86.00854492 C-170.20729151 85.11981548 -168.69154232 84.19354063 -167.1796875 83.26171875 C-164.7422561 81.85080416 -162.76427756 81.47194983 -160 81 C-157.99255385 80.35610218 -155.99054876 79.69437747 -154 79 C-154 79.66 -154 80.32 -154 81 C-156.3359375 82.7265625 -156.3359375 82.7265625 -159.375 84.625 C-160.37273437 85.25664062 -161.37046875 85.88828125 -162.3984375 86.5390625 C-165 88 -165 88 -167 88 C-167 88.66 -167 89.32 -167 90 C-169.97 90.99 -169.97 90.99 -173 92 C-173.86876587 98.99734246 -171.06066824 102.98479066 -167.25 108.6875 C-166.71117187 109.52861328 -166.17234375 110.36972656 -165.6171875 111.23632812 C-161.97598388 117.25383388 -161.97598388 117.25383388 -157 122 C-150.61303706 122.15692784 -146.0850028 119.03735566 -140.875 115.75 C-140.00029053 115.21205811 -139.12558105 114.67411621 -138.22436523 114.11987305 C-135.47510469 112.42547289 -132.7366088 110.71474481 -130 109 C-126.68923021 106.93471334 -123.37629324 104.87293138 -120.0625 102.8125 C-119.21776123 102.2858374 -118.37302246 101.7591748 -117.50268555 101.21655273 C-109.8097994 96.44503358 -102.00760972 91.8708975 -94.1875 87.3125 C-85.27199918 82.11521825 -76.41052022 76.86083006 -67.6953125 71.33203125 C-63.39339072 68.60309507 -59.03982378 65.96002542 -54.6875 63.3125 C-49.80167087 60.33869607 -44.93595226 57.34423836 -40.125 54.25 C-35.48404479 51.26957005 -30.73739119 48.50268463 -25.9609375 45.74609375 C-23.13653534 44.08051623 -20.37818423 42.34278482 -17.625 40.5625 C-12.72049972 37.39784434 -7.69572909 34.49614081 -2.59423828 31.66430664 C-0.10220568 30.26858478 1.96889096 29.03110904 4 27 C4.92115085 19.08034936 -0.15203731 12.78014009 -4.73046875 6.703125 C-8.23290718 2.44930814 -8.23290718 2.44930814 -13.21484375 0.62109375 C-20.88654293 0.10377688 -24.68350854 2.23664081 -30.4921875 7.15234375 C-33.10301381 9.07589646 -34.81424628 9.64031813 -38 10 C-33.5276968 2.54616133 -27.31015084 -1.85356251 -19 -4.5 C-12.36435929 -5.83251203 -5.38417079 -3.95554879 0 0 Z " fill="#032880" transform="translate(630,53)"/>
<path d="M0 0 C2.58984375 2.16796875 2.58984375 2.16796875 3.4609375 4.9296875 C3.50347656 5.66832031 3.54601562 6.40695313 3.58984375 7.16796875 C-0.32962525 5.76207226 -3.45613048 3.84881563 -6.91015625 1.54296875 C-13.4698755 -2.39775811 -18.92447379 -2.59267318 -26.41015625 -1.83203125 C-26.71050781 -1.20941406 -27.01085937 -0.58679687 -27.3203125 0.0546875 C-28.41015625 2.16796875 -28.41015625 2.16796875 -29.84765625 3.98046875 C-31.89732898 6.85001057 -33.08329484 9.91112711 -34.41015625 13.16796875 C-34.74015625 13.82796875 -35.07015625 14.48796875 -35.41015625 15.16796875 C-36.07015625 15.16796875 -36.73015625 15.16796875 -37.41015625 15.16796875 C-37.77190019 18.24279226 -37.89111592 21.10120443 -37.41015625 24.16796875 C-33.88951936 28.13996934 -29.57267181 30.2901591 -24.921875 32.76953125 C-21.09404277 34.90073489 -17.45611999 37.31448824 -13.79296875 39.71484375 C-11.40146912 41.29528353 -11.40146912 41.29528353 -8.41015625 42.16796875 C-8.41015625 42.82796875 -8.41015625 43.48796875 -8.41015625 44.16796875 C-7.68320557 44.44310303 -6.95625488 44.7182373 -6.20727539 45.00170898 C-3.54077079 46.11350897 -1.14873748 47.37244011 1.34375 48.828125 C2.26599365 49.3655835 3.1882373 49.90304199 4.13842773 50.45678711 C5.13302002 51.04210205 6.1276123 51.62741699 7.15234375 52.23046875 C8.20301025 52.84607666 9.25367676 53.46168457 10.33618164 54.09594727 C20.22725207 59.91289923 30.03402554 65.86609318 39.83203125 71.8379364 C40.70601562 72.37061882 40.70601562 72.37061882 41.59765625 72.9140625 C42.17837891 73.2680159 42.75910156 73.6219693 43.35742188 73.98664856 C49.52256682 77.74127979 55.71052817 81.45748403 61.90234375 85.16796875 C62.94986816 85.79582275 63.99739258 86.42367676 65.07666016 87.07055664 C69.21539253 89.55014522 73.35525971 92.02782936 77.49609375 94.50390625 C78.62015625 95.17679687 79.74421875 95.8496875 80.90234375 96.54296875 C82.02253906 97.21070313 83.14273438 97.8784375 84.296875 98.56640625 C87.42316256 100.44582045 90.52208494 102.36724622 93.616745 104.29824829 C96.13445225 105.86693783 98.65802363 107.42606445 101.18197632 108.98468018 C102.44237103 109.76639626 103.70010695 110.55241749 104.95498657 111.34295654 C106.73286947 112.46242037 108.5195728 113.56641839 110.30859375 114.66796875 C111.8699707 115.6425 111.8699707 115.6425 113.46289062 116.63671875 C116.94507795 118.34192478 119.7248238 118.97395266 123.58984375 119.16796875 C128.43076824 115.64195395 131.32859032 110.22386224 134.40234375 105.16796875 C134.90443359 104.37390625 135.40652344 103.57984375 135.92382812 102.76171875 C136.63442383 101.6015625 136.63442383 101.6015625 137.359375 100.41796875 C137.78839111 99.721875 138.21740723 99.02578125 138.65942383 98.30859375 C139.78008363 95.73028224 139.89936697 93.9528203 139.58984375 91.16796875 C137.69400266 88.85419728 137.69400266 88.85419728 135.58984375 87.16796875 C138.58984375 85.16796875 138.58984375 85.16796875 140.953125 85.3515625 C146.27957167 87.00078821 151.83272039 90.28536769 154.78515625 95.12890625 C156.39535018 100.28560328 154.82582647 104.42645316 152.58984375 109.16796875 C150.64485325 112.55478382 148.51264112 115.79874366 146.33984375 119.04296875 C145.7579126 119.92194824 145.17598145 120.80092773 144.57641602 121.70654297 C143.43211382 123.4301072 142.28390418 125.15108514 141.13134766 126.86914062 C139.85019653 128.77970746 138.58223575 130.69782596 137.3203125 132.62109375 C136.43279297 133.94367188 136.43279297 133.94367188 135.52734375 135.29296875 C135.04136719 136.01742187 134.55539063 136.741875 134.0546875 137.48828125 C131.3659894 140.57132174 129.28390702 141.10845463 125.21875 141.45703125 C112.25852049 140.42467712 98.88433364 128.78303157 88.32666016 121.93603516 C84.26814111 119.31410876 80.17988746 116.74032601 76.08984375 114.16796875 C69.24514181 109.85240691 62.41472599 105.514797 55.58984375 101.16796875 C53.72529445 99.98171733 51.86071141 98.79551896 49.99609375 97.609375 C46.5766621 95.43398018 43.16024004 93.25399036 39.74609375 91.0703125 C30.73935161 85.32575122 21.6366671 79.78158385 12.4206543 74.37915039 C4.09279925 69.49048065 -4.15779828 64.47883188 -12.39718628 59.44314575 C-18.31488225 55.82745566 -24.23801259 52.23401891 -30.2734375 48.81640625 C-31.15040283 48.31963379 -32.02736816 47.82286133 -32.9309082 47.31103516 C-34.524349 46.4156956 -36.12279487 45.52917486 -37.72729492 44.65380859 C-42.69343249 41.869112 -45.79301289 38.99796963 -48.66015625 33.98046875 C-50.43305839 27.33208573 -50.18385008 21.94849819 -46.97265625 15.79296875 C-35.53200787 -3.22068566 -35.53200787 -3.22068566 -24.66015625 -7.20703125 C-15.21538398 -9.13526453 -7.83724021 -4.72795004 0 0 Z " fill="#04287F" transform="translate(107.41015625,55.83203125)"/>
<path d="M0 0 C0 3.10551666 -0.5393715 4.35261084 -2 7 C-1.34 7 -0.68 7 0 7 C0 8.98 0 10.96 0 13 C0.53109375 12.48308594 1.0621875 11.96617188 1.609375 11.43359375 C2.31578125 10.77488281 3.0221875 10.11617187 3.75 9.4375 C4.44609375 8.77621094 5.1421875 8.11492187 5.859375 7.43359375 C8 6 8 6 10.140625 6.41015625 C10.75421875 6.60480469 11.3678125 6.79945312 12 7 C12.66 6.34 13.32 5.68 14 5 C14.99 5.33 15.98 5.66 17 6 C0.94823558 18.70764683 -17.74075489 29.26158537 -35.80859375 38.81640625 C-38.1152351 40.02576847 -38.1152351 40.02576847 -40.66015625 41.71484375 C-41.81837891 42.35099609 -41.81837891 42.35099609 -43 43 C-43.66 42.67 -44.32 42.34 -45 42 C-44.0919838 40.86800647 -43.17316174 39.74467637 -42.25 38.625 C-41.73953125 37.99851563 -41.2290625 37.37203125 -40.703125 36.7265625 C-38.90790739 34.90664006 -37.27197805 34.11736625 -35 33 C-33.24677063 30.46811352 -33.24677063 30.46811352 -32 28 C-32.7425 28.33 -33.485 28.66 -34.25 29 C-37 30 -37 30 -41 30 C-41.66 29.34 -42.32 28.68 -43 28 C-44.98 28.99 -46.96 29.98 -49 31 C-49 30.34 -49 29.68 -49 29 C-47.12504977 27.73178549 -45.18254879 26.56324453 -43.21875 25.4375 C-42.61767929 25.08965958 -42.01660858 24.74181915 -41.39732361 24.38343811 C-40.10573186 23.63682012 -38.81223291 22.8934938 -37.51705933 22.15310669 C-34.17097527 20.24022695 -30.83797079 18.30482199 -27.50390625 16.37109375 C-26.84930923 15.99222519 -26.19471222 15.61335663 -25.52027893 15.2230072 C-19.78930247 11.89815727 -14.15309596 8.43721667 -8.5703125 4.86914062 C-5.77546838 3.08622282 -3.00618625 1.40386693 0 0 Z " fill="#4D9ADA" transform="translate(563,82)"/>
<path d="M0 0 C6.66529706 3.13661038 12.83014784 6.90454452 19.07519531 10.80224609 C29.24928168 17.13330491 39.50023075 23.33270108 49.84179688 29.38598633 C54.16267271 31.91560672 58.46354499 34.47473284 62.75 37.0625 C70.00621212 41.43520429 77.31489766 45.71826086 84.625 50 C85.54730911 50.54027328 85.54730911 50.54027328 86.48825073 51.09146118 C93.00351554 54.90747372 99.5208315 58.71997593 106.03894043 62.53112793 C108.66596758 64.06746756 111.29246729 65.60470742 113.91888428 67.14208984 C115.76455876 68.22195071 117.61102315 69.30045159 119.45751953 70.37890625 C125.36199897 73.83485955 131.22354953 77.33376575 137 81 C135.02 82.98 135.02 82.98 133 85 C125.433169 80.77959426 118.00396947 76.4354659 110.73901367 71.70703125 C92.45803671 59.83126877 73.77514334 48.64982748 54.61254883 38.26318359 C47.64665567 34.44568239 40.93076523 30.2905922 34.26611328 25.97119141 C30.27181503 23.38860304 26.31606547 21.02786568 22 19 C22 18.34 22 17.68 22 17 C21.35675781 16.76925781 20.71351563 16.53851563 20.05078125 16.30078125 C15.926142 14.54213225 12.08133509 12.40368946 8.1875 10.1875 C7.39923828 9.76146484 6.61097656 9.33542969 5.79882812 8.89648438 C3.71318949 7.70288512 1.81256108 6.57860676 0 5 C-0.51171875 2.17578125 -0.51171875 2.17578125 0 0 Z " fill="#0B52AF" transform="translate(110,59)"/>
<path d="M0 0 C0.99 0.495 0.99 0.495 2 1 C-3.10446284 7.417039 -8.7616296 11.60836896 -15.75 15.8125 C-16.51932861 16.27897949 -17.28865723 16.74545898 -18.08129883 17.22607422 C-20.71797611 18.82222369 -23.35852501 20.41180339 -26 22 C-27.00401855 22.60408691 -28.00803711 23.20817383 -29.04248047 23.83056641 C-35.42154299 27.66664418 -41.8055173 31.49447401 -48.19189453 35.31835938 C-51.23564484 37.14111647 -54.27820002 38.96585254 -57.32006836 40.79174805 C-58.51205946 41.50713618 -59.70427525 42.22215007 -60.89672852 42.93676758 C-63.76862173 44.65811846 -66.63710702 46.3848315 -69.5 48.12109375 C-75.95762952 52.02843708 -82.4571087 55.83857923 -89.02880859 59.55175781 C-99.82494236 65.63553022 -99.82494236 65.63553022 -110.0625 72.59765625 C-116.1448468 77 -116.1448468 77 -119 77 C-119 76.34 -119 75.68 -119 75 C-121.64 76.32 -124.28 77.64 -127 79 C-127.33 78.34 -127.66 77.68 -128 77 C-115.5693193 69.63271039 -103.11641867 62.30523483 -90.63061523 55.03173828 C-83.40299466 50.82077667 -76.18632054 46.59183988 -68.98046875 42.34375 C-66.3198101 40.77536174 -63.65558509 39.21330882 -60.98828125 37.65625 C-40.37721851 25.61034384 -19.81076712 13.3323646 0 0 Z " fill="#0B53AF" transform="translate(595,57)"/>
<path d="M0 0 C10.8775574 5.03952088 20.82283907 11.16891815 30.88720703 17.65527344 C34.36399968 19.86814308 37.91168965 21.95070322 41.48046875 24.01171875 C41.98191406 24.33785156 42.48335937 24.66398437 43 25 C43 25.33 43 25.66 43 26 C38.9472484 26.98248524 35.16138263 27.08159574 31 27 C31 26.34 31 25.68 31 25 C30.01 25.495 30.01 25.495 29 26 C30.55888097 29.8263442 33.07127956 32.14637496 36 35 C36.33 35.66 36.66 36.32 37 37 C31.16192232 35.42661736 26.56163103 33.26732273 21.62890625 29.79296875 C18.43804466 27.61673477 15.13562578 25.65191558 11.8125 23.6875 C4.42460176 19.30213987 -2.8030797 14.69075083 -10 10 C-9.34 9.67 -8.68 9.34 -8 9 C-6.28269241 9.95772923 -4.56844825 10.92249676 -2.88671875 11.94140625 C-0.36959267 13.3537068 2.23787478 14.19157311 5 15 C4.525625 14.319375 4.05125 13.63875 3.5625 12.9375 C1.76881893 9.56537958 1.41921858 6.77296723 1 3 C0.67 2.01 0.34 1.02 0 0 Z " fill="#4B96D9" transform="translate(131,77)"/>
<path d="M0 0 C-3.75523043 4.45865976 -7.4152346 8.38044837 -12 12 C-12.85083377 13.02742191 -13.68347292 14.07010787 -14.5 15.125 C-17.07522816 18.08651239 -18.37331606 18.82132772 -22 20 C-22.86625 20.556875 -23.7325 21.11375 -24.625 21.6875 C-25.40875 22.120625 -26.1925 22.55375 -27 23 C-27.99 22.67 -28.98 22.34 -30 22 C-32.35188447 22.59793673 -34.68925595 23.25881795 -37 24 C-37.33 22.68 -37.66 21.36 -38 20 C-37.30519531 19.57332031 -36.61039063 19.14664063 -35.89453125 18.70703125 C-34.87746094 18.08183594 -33.86039063 17.45664063 -32.8125 16.8125 C-32.25312744 16.470979 -31.69375488 16.12945801 -31.11743164 15.77758789 C-27.24937645 13.40902504 -23.41753798 10.99075653 -19.6015625 8.5390625 C-18.66723389 7.94504639 -17.73290527 7.35103027 -16.77026367 6.73901367 C-14.89428704 5.54597467 -13.02451938 4.34311116 -11.16137695 3.13012695 C-10.292146 2.5805835 -9.42291504 2.03104004 -8.52734375 1.46484375 C-7.75124756 0.965896 -6.97515137 0.46694824 -6.17553711 -0.04711914 C-3.62352546 -1.16489509 -2.55901116 -0.97477476 0 0 Z " fill="#65A7DF" transform="translate(561,86)"/>
<path d="M0 0 C0.99 0.33 1.98 0.66 3 1 C-13.05176442 13.70764683 -31.74075489 24.26158537 -49.80859375 33.81640625 C-52.1152351 35.02576847 -52.1152351 35.02576847 -54.66015625 36.71484375 C-55.81837891 37.35099609 -55.81837891 37.35099609 -57 38 C-57.66 37.67 -58.32 37.34 -59 37 C-55.44336392 32.39655259 -52.51935304 29.23122782 -47 27 C-46.113125 26.608125 -45.22625 26.21625 -44.3125 25.8125 C-42 25 -42 25 -39 25 C-39 24.34 -39 23.68 -39 23 C-37.824375 22.62875 -36.64875 22.2575 -35.4375 21.875 C-31.47977646 20.40917647 -28.83973468 18.42755867 -25.8359375 15.5 C-24 14 -24 14 -21.11328125 12.6015625 C-17.78629085 10.89006179 -15.51483565 8.94745595 -12.8125 6.375 C-8.31421446 2.10473815 -8.31421446 2.10473815 -5 1 C-4.01 1.33 -3.02 1.66 -2 2 C-1.34 1.34 -0.68 0.68 0 0 Z " fill="#2482D4" transform="translate(577,87)"/>
<path d="M0 0 C6.23626831 1.62730907 11.40907507 5.01611555 16.875 8.3125 C17.83019531 8.88162109 18.78539062 9.45074219 19.76953125 10.03710938 C25.22100787 13.29378711 30.62730863 16.61507742 36 20 C34.68 21.32 33.36 22.64 32 24 C23.50062896 19.25946935 15.2054217 14.30520078 7.05859375 8.98046875 C4.40306062 7.26098561 1.72400304 5.60802414 -1 4 C-0.67 2.68 -0.34 1.36 0 0 Z " fill="#0745A1" transform="translate(211,120)"/>
<path d="M0 0 C3.95724321 0.57611311 6.64448478 1.771765 10.01171875 3.90625 C10.93404297 4.48503906 11.85636719 5.06382813 12.80664062 5.66015625 C14.23266602 6.57087891 14.23266602 6.57087891 15.6875 7.5 C17.5869177 8.69842698 19.48664196 9.89636827 21.38671875 11.09375 C22.22420654 11.62677734 23.06169434 12.15980469 23.92456055 12.70898438 C25.95208839 14.01466516 25.95208839 14.01466516 28 15 C28 15.66 28 16.32 28 17 C22.54495164 18.5001383 18.99390349 17.14149816 14 15 C13.13246094 14.68546875 12.26492187 14.3709375 11.37109375 14.046875 C10.48550781 13.72203125 9.59992188 13.3971875 8.6875 13.0625 C7.86636719 12.76472656 7.04523438 12.46695313 6.19921875 12.16015625 C3.59593267 10.78684192 2.49584483 9.51956364 1 7 C0.3125 3.25 0.3125 3.25 0 0 Z " fill="#6BA9E0" transform="translate(138,82)"/>
<path d="M0 0 C3.40312738 1.05875074 6.01353231 2.00902154 9 4 C11.29793013 4.74549605 13.61078713 5.38816201 15.94140625 6.0234375 C18.503047 7.23863709 19.01083735 8.40144299 20 11 C20.66 11 21.32 11 22 11 C22.33 11.66 22.66 12.32 23 13 C25.12576782 13.46651207 25.12576782 13.46651207 27.5625 13.625 C28.38878906 13.69976562 29.21507812 13.77453125 30.06640625 13.8515625 C30.70449219 13.90054688 31.34257812 13.94953125 32 14 C32.495 15.98 32.495 15.98 33 18 C33.680625 17.87625 34.36125 17.7525 35.0625 17.625 C39.45148959 18.18529654 42.07294841 20.7854043 45 24 C46.20703125 26.203125 46.20703125 26.203125 47 28 C41.16192232 26.42661736 36.56163103 24.26732273 31.62890625 20.79296875 C28.43802496 18.61672134 25.13544991 16.65223487 21.8125 14.6875 C16.5122726 11.53528434 11.26016036 8.31892341 6.0625 5 C5.45317627 4.61416748 4.84385254 4.22833496 4.21606445 3.83081055 C2.79224516 2.91530611 1.39307995 1.961633 0 1 C0 0.67 0 0.34 0 0 Z " fill="#237FD1" transform="translate(121,86)"/>
<path d="M0 0 C0 0.66 0 1.32 0 2 C-1.43359375 3.375 -1.43359375 3.375 -3.4375 5 C-9.80448962 10.43000356 -15.60752703 16.42960374 -19.9375 23.625 C-20.9584375 25.295625 -20.9584375 25.295625 -22 27 C-22.66 27 -23.32 27 -24 27 C-24 27.66 -24 28.32 -24 29 C-25.98 29.99 -25.98 29.99 -28 31 C-27.57236626 22.44732528 -20.95080609 16.83668576 -15.5 10.8125 C-15.04963379 10.31347168 -14.59926758 9.81444336 -14.13525391 9.30029297 C-5.55869508 0 -5.55869508 0 0 0 Z " fill="#13489D" transform="translate(294,166)"/>
<path d="M0 0 C0 3 0 3 -1 6 C-2.71826172 7.33447266 -2.71826172 7.33447266 -4.9296875 8.6640625 C-5.72503906 9.14617187 -6.52039063 9.62828125 -7.33984375 10.125 C-8.17644531 10.62 -9.01304687 11.115 -9.875 11.625 C-10.70386719 12.12773437 -11.53273438 12.63046875 -12.38671875 13.1484375 C-18.54110601 16.84703534 -18.54110601 16.84703534 -22 18 C-22 17.34 -22 16.68 -22 16 C-25.96 17.98 -25.96 17.98 -30 20 C-30.33 19.34 -30.66 18.68 -31 18 C-27.52202944 15.93547813 -24.04240467 13.87375983 -20.5625 11.8125 C-19.58861328 11.23435547 -18.61472656 10.65621094 -17.61132812 10.06054688 C-11.78981799 6.61436863 -5.93575626 3.24569638 0 0 Z " fill="#0B4BA5" transform="translate(498,116)"/>
<path d="M0 0 C0.33 0.66 0.66 1.32 1 2 C5.0522542 3.3507514 7.18721733 2.70571856 11 1 C11.99 1 12.98 1 14 1 C11.61518778 3.76136152 9.37538437 4.71413929 6 6 C4.700625 6.8353125 4.700625 6.8353125 3.375 7.6875 C2.59125 8.120625 1.8075 8.55375 1 9 C0.01 8.67 -0.98 8.34 -2 8 C-4.35188447 8.59793673 -6.68925595 9.25881795 -9 10 C-9.33 8.68 -9.66 7.36 -10 6 C-6.7 4.02 -3.4 2.04 0 0 Z " fill="#5EA4DE" transform="translate(533,100)"/>
<path d="M0 0 C0.66 0.33 1.32 0.66 2 1 C-5.38365662 8.00009004 -5.38365662 8.00009004 -9.6875 9.6875 C-15.76988385 12.09750115 -18.54068179 15.5948153 -22 21 C-23.62132193 23.04054224 -25.31410957 25.01151385 -27 27 C-27.556875 27.78375 -28.11375 28.5675 -28.6875 29.375 C-29.120625 29.91125 -29.55375 30.4475 -30 31 C-30.66 31 -31.32 31 -32 31 C-27.38524279 17.59062695 -14.2517554 8.00900666 -2.50390625 1.15234375 C-1.67761719 0.77207031 -0.85132813 0.39179688 0 0 Z " fill="#ADDFF6" transform="translate(316,167)"/>
<path d="M0 0 C0.62109375 1.8125 0.62109375 1.8125 1 4 C-2.06494978 8.7457287 -5.05972786 10.77290748 -10.14453125 13.0625 C-12.5743541 14.29019996 -14.15513976 16.02336403 -16 18 C-19.09647064 19.93529415 -20.13930677 20 -24 20 C-24 20.66 -24 21.32 -24 22 C-24.99 22 -25.98 22 -27 22 C-27 21.34 -27 20.68 -27 20 C-25.25588699 18.76337138 -23.45293515 17.60897865 -21.625 16.5 C-17.57056853 14.05783493 -17.57056853 14.05783493 -14 11 C-12.84951172 10.58621094 -12.84951172 10.58621094 -11.67578125 10.1640625 C-8.43032293 8.75216969 -6.62658332 6.923296 -4.1875 4.375 C-3.39730469 3.55773437 -2.60710938 2.74046875 -1.79296875 1.8984375 C-1.20128906 1.27195312 -0.60960937 0.64546875 0 0 Z " fill="#3E91D7" transform="translate(562,90)"/>
<path d="M0 0 C5.02450233 0.48716658 8.18108247 2.910607 12.125 5.8125 C12.74503906 6.25142578 13.36507813 6.69035156 14.00390625 7.14257812 C17.2233678 9.47236051 19.82929919 11.601348 22 15 C20 14 18 13 16 12 C15.01 13.485 15.01 13.485 14 15 C13.38125 14.34 12.7625 13.68 12.125 13 C8.09168309 8.94330155 3.49788547 5.51970455 -1 2 C-0.67 1.34 -0.34 0.68 0 0 Z " fill="#0C439B" transform="translate(401,158)"/>
<path d="M0 0 C-3.50461317 2.33640878 -5.52530115 2.40999193 -9.6875 2.8125 C-21.5944358 4.19512802 -32.58689597 7.6156167 -42.86328125 13.86328125 C-45 15 -45 15 -48 15 C-48 14.34 -48 13.68 -48 13 C-41.375 9 -41.375 9 -38 9 C-38 8.34 -38 7.68 -38 7 C-25.38696753 3.06540359 -13.29798926 -0.11894445 0 0 Z " fill="#30B3F5" transform="translate(363,170)"/>
<path d="M0 0 C0.53109375 0.23203125 1.0621875 0.4640625 1.609375 0.703125 C-6.265625 10.328125 -6.265625 10.328125 -10.390625 11.703125 C-10.390625 11.043125 -10.390625 10.383125 -10.390625 9.703125 C-11.710625 9.703125 -13.030625 9.703125 -14.390625 9.703125 C-14.390625 8.713125 -14.390625 7.723125 -14.390625 6.703125 C-11.90625 4.84375 -11.90625 4.84375 -8.640625 2.953125 C-7.03960938 2.00179687 -7.03960938 2.00179687 -5.40625 1.03125 C-2.390625 -0.296875 -2.390625 -0.296875 0 0 Z " fill="#79B5E4" transform="translate(548.390625,92.296875)"/>
<path d="M0 0 C0.66 0.33 1.32 0.66 2 1 C-0.53936353 3.61405069 -2.98148028 5.98538718 -5.8515625 8.25 C-9.23232481 11.04123993 -11.69421082 14.27462517 -14.25 17.8125 C-15.78574068 19.93099942 -17.34598003 21.96817331 -19 24 C-19.66 24 -20.32 24 -21 24 C-21.33 24.66 -21.66 25.32 -22 26 C-22 25.01 -22 24.02 -22 23 C-21.34 23 -20.68 23 -20 23 C-19.9071875 21.9171875 -19.9071875 21.9171875 -19.8125 20.8125 C-18.72098423 17.03417619 -16.90539899 15.65813099 -14 13 C-12.68383007 11.67028923 -11.37159265 10.33667889 -10.0625 9 C-6.85208711 5.78349524 -3.54735651 2.8378852 0 0 Z " fill="#2D94E1" transform="translate(312,185)"/>
<path d="M0 0 C0 0.66 0 1.32 0 2 C2.97 1.01 5.94 0.02 9 -1 C11 2 11 2 10.625 4.1875 C10.41875 4.785625 10.2125 5.38375 10 6 C8.68 6.33 7.36 6.66 6 7 C6 4 6 4 7 2 C6.2575 2.33 5.515 2.66 4.75 3 C2 4 2 4 -2 4 C-2.66 3.34 -3.32 2.68 -4 2 C-5.98 2.99 -7.96 3.98 -10 5 C-10 4.34 -10 3.68 -10 3 C-3.375 -1.125 -3.375 -1.125 0 0 Z " fill="#4293D8" transform="translate(524,108)"/>
<path d="M0 0 C4.43744296 -0.05878606 8.87478373 -0.09385813 13.3125 -0.125 C14.55580078 -0.14175781 15.79910156 -0.15851563 17.08007812 -0.17578125 C24.62305909 -0.21537695 31.6408884 0.31351712 39 2 C38.34 2.33 37.68 2.66 37 3 C37 3.66 37 4.32 37 5 C36.25621094 4.79503906 35.51242187 4.59007812 34.74609375 4.37890625 C23.24771438 1.54164381 11.79442435 1.27588405 0 1 C0 0.67 0 0.34 0 0 Z " fill="#0D59BC" transform="translate(339,146)"/>
<path d="M0 0 C-0.73605469 0.39832031 -1.47210937 0.79664062 -2.23046875 1.20703125 C-3.20628906 1.73683594 -4.18210937 2.26664062 -5.1875 2.8125 C-6.63189453 3.59560547 -6.63189453 3.59560547 -8.10546875 4.39453125 C-10.01842069 5.45556127 -11.89862718 6.57814673 -13.73828125 7.76171875 C-14.48464844 8.17035156 -15.23101563 8.57898438 -16 9 C-16.66 8.67 -17.32 8.34 -18 8 C-12.90544574 1.29479629 -12.90544574 1.29479629 -9.3125 0.125 C-8.549375 0.08375 -7.78625 0.0425 -7 0 C-3.86650268 -1.04449911 -3.01031744 -0.93423645 0 0 Z " fill="#1277D1" transform="translate(536,116)"/>
<path d="M0 0 C2.475 0.495 2.475 0.495 5 1 C4.67 1.66 4.34 2.32 4 3 C5.14323564 8.84415252 5.14323564 8.84415252 9 13 C11.30988315 13.74386068 13.64315944 14.42190703 16 15 C16 15.33 16 15.66 16 16 C11.87785194 16.14656526 8.35627405 16.14418181 5.1015625 13.3984375 C1.66827418 9.0607708 0.22934676 5.50432224 0 0 Z " fill="#559DDD" transform="translate(135,80)"/>
<path d="M0 0 C0 0.99 0 1.98 0 3 C-0.99 3.495 -0.99 3.495 -2 4 C-2.66 3.34 -3.32 2.68 -4 2 C-2.68 1.34 -1.36 0.68 0 0 Z M-3 4 C-2.67 5.32 -2.34 6.64 -2 8 C-3.40851947 9.32123942 -4.82715741 10.63169769 -6.25 11.9375 C-7.03890625 12.66839844 -7.8278125 13.39929688 -8.640625 14.15234375 C-10.89044414 15.91420543 -12.21628554 16.59776603 -15 17 C-12.84649851 14.10105569 -10.67752906 11.6348825 -7.875 9.375 C-4.88146585 7.13441618 -4.88146585 7.13441618 -3 4 Z " fill="#57A0DD" transform="translate(563,82)"/>
<path d="M0 0 C3.491933 0.64665426 6.15389899 1.86542424 9 4 C9 5.32 9 6.64 9 8 C4.25 7.125 4.25 7.125 2 6 C2 5.34 2 4.68 2 4 C1.01 3.67 0.02 3.34 -1 3 C-0.67 2.01 -0.34 1.02 0 0 Z " fill="#0849A6" transform="translate(130,72)"/>
<path d="M0 0 C0.66 0.33 1.32 0.66 2 1 C-2.74119604 5.49490014 -6.83217205 8.77958194 -13 11 C-13.99 11.495 -13.99 11.495 -15 12 C-13.50843611 7.65287629 -10.26304428 5.92002193 -6.5 3.6875 C-5.90574219 3.31560547 -5.31148438 2.94371094 -4.69921875 2.56054688 C-3.17369803 1.63593669 -1.5896236 0.80945307 0 0 Z " fill="#CBF1FB" transform="translate(316,167)"/>
<path d="M0 0 C-11.73786408 9 -11.73786408 9 -15 9 C-13.22455072 4.02874201 -9.12684317 2.2761059 -4.8125 -0.3125 C-3 -1 -3 -1 0 0 Z " fill="#1075D0" transform="translate(580,88)"/>
<path d="M0 0 C-0.66 0 -1.32 0 -2 0 C-2 0.66 -2 1.32 -2 2 C-4.26727333 3.17407021 -6.53834624 4.33939739 -8.8125 5.5 C-9.45509766 5.83386719 -10.09769531 6.16773438 -10.75976562 6.51171875 C-13.69547699 8.00239084 -15.66126517 9 -19 9 C-19 8.34 -19 7.68 -19 7 C-12.375 3 -12.375 3 -9 3 C-9 2.34 -9 1.68 -9 1 C-5.57367167 -0.61798838 -3.61944899 -1.34053666 0 0 Z " fill="#6ACFFA" transform="translate(334,176)"/>
<path d="M0 0 C3.40312738 1.05875074 6.01353231 2.00902154 9 4 C10.98799818 4.70164642 12.98698517 5.37372872 15 6 C15 6.66 15 7.32 15 8 C15.99 8.33 16.98 8.66 18 9 C18.33 9.99 18.66 10.98 19 12 C14.46463751 10.41305672 10.68503997 8.0435173 6.6875 5.4375 C6.04232422 5.02564453 5.39714844 4.61378906 4.73242188 4.18945312 C3.13495169 3.15659145 1.56465902 2.08192254 0 1 C0 0.67 0 0.34 0 0 Z " fill="#1878CF" transform="translate(121,86)"/>
<path d="M0 0 C3.87302138 1.14430177 7.00263439 2.23320098 10 5 C10 5.66 10 6.32 10 7 C3.56461405 7.36426713 3.56461405 7.36426713 1.0625 5.75 C0 4 0 4 0 0 Z " fill="#7AB1E1" transform="translate(147,87)"/>
<path d="M0 0 C0 0.66 0 1.32 0 2 C-1.57421875 3.55078125 -1.57421875 3.55078125 -3.6875 5.3125 C-6.19802294 7.43644684 -8.60823421 9.55501344 -10.875 11.9375 C-13 14 -13 14 -15 14 C-13.41102996 9.95190965 -10.69374052 7.62436647 -7.5 4.75 C-7.00113281 4.29109375 -6.50226563 3.8321875 -5.98828125 3.359375 C-2.25897507 0 -2.25897507 0 0 0 Z " fill="#003795" transform="translate(294,166)"/>
<path d="M0 0 C3 1 3 1 5 4 C5.69100553 5.99172182 6.35902703 7.99161804 7 10 C7.33 10.66 7.66 11.32 8 12 C4.34683329 10.75023244 3.21934164 10.32901247 1 7 C0.60612212 4.67612053 0.26513915 2.34206251 0 0 Z " fill="#62A6E1" transform="translate(138,82)"/>
<path d="M0 0 C0.66 0.33 1.32 0.66 2 1 C-1.80411834 4.91939465 -5.81576108 8.49102731 -10 12 C-10.66 11.67 -11.32 11.34 -12 11 C-8.04 7.37 -4.08 3.74 0 0 Z " fill="#62C2F3" transform="translate(312,185)"/>
<path d="M0 0 C0 0.99 0 1.98 0 3 C-1.96875 4.60546875 -1.96875 4.60546875 -4.5 6.1875 C-5.3353125 6.71730469 -6.170625 7.24710938 -7.03125 7.79296875 C-7.6809375 8.19128906 -8.330625 8.58960938 -9 9 C-9.66 8.34 -10.32 7.68 -11 7 C-7.37 4.69 -3.74 2.38 0 0 Z " fill="#174FA8" transform="translate(303,158)"/>
<path d="M0 0 C1.32 0.33 2.64 0.66 4 1 C3.01 1.495 3.01 1.495 2 2 C1.34 1.34 0.68 0.68 0 0 Z M-2 5 C-1.67 5.66 -1.34 6.32 -1 7 C-3.36292656 9.52588702 -4.66462511 10.88820837 -8 12 C-8 11.01 -8 10.02 -8 9 C-5 6.8125 -5 6.8125 -2 5 Z " fill="#70AFE2" transform="translate(546,92)"/>
<path d="M0 0 C0 0.99 0 1.98 0 3 C-0.66 3.66 -1.32 4.32 -2 5 C-2.99 5 -3.98 5 -5 5 C-5.33 5.66 -5.66 6.32 -6 7 C-7.32 6.67 -8.64 6.34 -10 6 C-6.7 4.02 -3.4 2.04 0 0 Z " fill="#185CB3" transform="translate(540,91)"/>
<path d="M0 0 C0.99 0 1.98 0 3 0 C1.375 5.75 1.375 5.75 -2 8 C-1.125 2.25 -1.125 2.25 0 0 Z " fill="#0C368E" transform="translate(261,201)"/>
<path d="M0 0 C0 3.17370278 -0.30933342 4.3794668 -2 7 C-4.125 8.25 -4.125 8.25 -6 9 C-6 5 -6 5 -4.6875 3.515625 C-3.125 2.34375 -1.5625 1.171875 0 0 Z " fill="#023492" transform="translate(272,188)"/>
<path d="M0 0 C2.31 0.33 4.62 0.66 7 1 C6.67 1.99 6.34 2.98 6 4 C4.35 4 2.7 4 1 4 C0.67 2.68 0.34 1.36 0 0 Z " fill="#4292D7" transform="translate(153,100)"/>
<path d="M0 0 C1 3 1 3 -0.25 5.625 C-2 8 -2 8 -5 9 C-3.7508258 5.54074837 -2.32472205 2.85306797 0 0 Z " fill="#8DC7F1" transform="translate(289,189)"/>
<path d="M0 0 C0 3 0 3 -1 6 C-3.0625 7.1875 -3.0625 7.1875 -5 8 C-4.75 5.125 -4.75 5.125 -4 2 C-1.9375 0.625 -1.9375 0.625 0 0 Z " fill="#0F58B6" transform="translate(527,99)"/>
<path d="M0 0 C0.75 1.625 0.75 1.625 1 4 C-0.9375 7.25 -0.9375 7.25 -3 10 C-4 7 -4 7 -3.22265625 5.17578125 C-2.1484375 3.45052083 -1.07421875 1.72526042 0 0 Z " fill="#5E9FDD" transform="translate(283,198)"/>
</svg>
