<?xml version="1.0" encoding="UTF-8"?>
<svg version="1.1" xmlns="http://www.w3.org/2000/svg" width="1311" height="373">
<path d="M0 0 C2.04731995 -0.0060032 4.09463766 -0.01281276 6.14195251 -0.02035522 C11.63254245 -0.03781361 17.12306987 -0.04270119 22.61368489 -0.0439868 C26.04844182 -0.04541742 29.48318327 -0.04970347 32.91793633 -0.05498123 C44.91014478 -0.07339538 56.90230912 -0.08166033 68.89453125 -0.08007812 C80.06598897 -0.07887028 91.23725553 -0.10011982 102.40866476 -0.13156545 C112.02433113 -0.15766658 121.63993461 -0.16844843 131.25563616 -0.16716731 C136.98939726 -0.16665703 142.72298701 -0.17238028 148.45671272 -0.19352341 C153.83071499 -0.21280851 159.20438016 -0.21309747 164.57839394 -0.19849014 C166.55253845 -0.19639071 168.52670362 -0.20116988 170.50081253 -0.21321106 C173.18783906 -0.22854566 175.87368486 -0.21943547 178.5606842 -0.20394897 C179.34762053 -0.2142361 180.13455686 -0.22452323 180.94533974 -0.23512208 C186.20474635 -0.1677664 186.20474635 -0.1677664 188.66762733 2.1906023 C189.80126589 4.53430987 190.0578538 6.04913685 190.05566406 8.64428711 C190.06189285 9.49519424 190.06812164 10.34610138 190.07453918 11.22279358 C190.06072456 12.58856789 190.06072456 12.58856789 190.04663086 13.98193359 C190.04712936 14.92358871 190.04762787 15.86524384 190.04814148 16.83543396 C190.04580368 18.8233349 190.03609251 20.81123894 190.01953125 22.79907227 C189.99590937 25.84532048 189.99897624 28.890695 190.00561523 31.93701172 C190.0000393 33.86865757 189.99292995 35.80029973 189.98413086 37.73193359 C189.98504227 38.64447403 189.98595367 39.55701447 189.9868927 40.49720764 C189.97736069 41.34496262 189.96782867 42.19271759 189.95800781 43.06616211 C189.95340042 43.81132584 189.94879303 44.55648956 189.94404602 45.32423401 C189.68334961 47.29052734 189.68334961 47.29052734 187.68334961 50.29052734 C185.11239485 50.59301029 182.77996139 50.69752145 180.20570374 50.67579651 C179.03493535 50.68365005 179.03493535 50.68365005 177.84051508 50.69166225 C175.20992829 50.70569459 172.57982712 50.69830406 169.94921875 50.69116211 C168.06844139 50.6969015 166.18766771 50.70398297 164.30690002 50.71231079 C160.24610547 50.72746382 156.18544272 50.73319462 152.12462044 50.73178291 C145.68802203 50.7297511 139.25160042 50.74930974 132.81504822 50.7719574 C120.28758762 50.81301645 107.7601406 50.83153259 95.23262787 50.84812927 C79.34907745 50.87044178 63.46556814 50.90433589 47.58208364 50.9553284 C41.20144305 50.97511045 34.82089386 50.98482093 28.44022381 50.98628056 C24.43935551 50.98906036 20.43853627 50.99995567 16.43768883 51.01279068 C14.60251961 51.0170176 12.76733893 51.01796681 10.93216705 51.01511574 C1.7108696 51.00245087 -7.40631976 51.24195454 -16.58595276 52.17076111 C-17.35161275 52.24661582 -18.11727274 52.32247052 -18.90613455 52.40062386 C-31.2166269 53.78356149 -41.95777856 58.10829562 -50.27758789 67.50537109 C-58.44996575 78.14325535 -60.40893921 90.90147162 -60.4777832 103.99731445 C-60.48274811 104.72220062 -60.48771301 105.44708679 -60.49282837 106.19393921 C-60.50731094 108.56859324 -60.51423111 110.94318033 -60.51977539 113.31787109 C-60.52260277 114.13882326 -60.52543015 114.95977543 -60.5283432 115.80560493 C-60.54328474 120.15645792 -60.55254406 124.50727822 -60.55688477 128.8581543 C-60.56233991 133.3022825 -60.58631953 137.74609977 -60.61485672 142.19013119 C-60.63369331 145.65046495 -60.63869987 149.11072722 -60.64022064 152.57110786 C-60.64320422 154.20660653 -60.65108268 155.8421053 -60.66440582 157.47755241 C-60.79341982 174.54194997 -60.03239082 191.94760074 -48.31665039 205.29052734 C-48.31665039 205.95052734 -48.31665039 206.61052734 -48.31665039 207.29052734 C-47.46586914 207.71011719 -47.46586914 207.71011719 -46.59790039 208.13818359 C-45.10586051 208.89186812 -43.62574888 209.66977219 -42.16040039 210.47412109 C-26.60675027 218.79532391 -10.11076974 218.43788717 7.03857422 218.43237305 C8.99574868 218.43540861 10.95292243 218.43893115 12.91009521 218.44290161 C17.10771194 218.45075613 21.3053203 218.45592225 25.50294304 218.45919228 C32.13736931 218.46512348 38.77174256 218.48168026 45.40614319 218.50053406 C47.68036935 218.5068701 49.95459554 218.51319574 52.22882175 218.51951122 C53.36712 218.52267703 54.50541825 218.52584285 55.67821038 218.52910459 C71.11358957 218.57115693 86.54894224 218.60419983 101.984375 218.61645508 C112.41305974 218.62481992 122.8416113 218.64724266 133.2702294 218.68581074 C138.78614788 218.70560681 144.30186711 218.71796377 149.81782341 218.71297646 C154.99639192 218.70835011 160.17458114 218.72202444 165.35307312 218.74998856 C167.25623899 218.75693149 169.15944383 218.75699382 171.06260872 218.74978828 C173.65388588 218.74096531 176.24389417 218.75648509 178.83506775 218.77827454 C179.59380674 218.769832 180.35254573 218.76138946 181.13427681 218.75269109 C186.20902384 218.83200405 186.20902384 218.83200405 188.65005779 221.19171333 C189.80332156 223.53421341 190.06320762 225.04222509 190.0715332 227.64428711 C190.08098969 228.49519424 190.09044617 229.34610138 190.10018921 230.22279358 C190.09108017 231.58856789 190.09108017 231.58856789 190.08178711 232.98193359 C190.08465729 233.92358871 190.08752747 234.86524384 190.09048462 235.83543396 C190.09252374 237.82331952 190.08700451 239.81122522 190.07446289 241.79907227 C190.05838929 244.84550676 190.07432605 247.89061814 190.09350586 250.93701172 C190.09152375 252.86865528 190.08768075 254.80029801 190.08178711 256.73193359 C190.0878598 257.64447403 190.0939325 258.55701447 190.10018921 259.49720764 C190.09073273 260.34496262 190.08127625 261.19271759 190.0715332 262.06616211 C190.06914642 262.81132584 190.06675964 263.55648956 190.06430054 264.32423401 C189.53988568 267.03102212 188.95808265 267.69076841 186.68334961 269.29052734 C183.86214288 269.58326975 181.26204963 269.69078487 178.44006348 269.66474915 C177.5892764 269.66872355 176.73848933 269.67269796 175.86192083 269.6767928 C172.99949475 269.68644757 170.13755903 269.67457782 167.27514648 269.6628418 C165.22673864 269.665269 163.17833197 269.66898763 161.12992859 269.67390442 C155.55249926 269.68333625 149.97524478 269.67386364 144.39782906 269.66057229 C138.5517181 269.64926097 132.70561582 269.65336569 126.85949707 269.65531921 C117.02357126 269.65620341 107.18771418 269.64510494 97.35180664 269.62670898 C86.0191827 269.60563348 74.68666015 269.60201069 63.3540206 269.60827094 C52.42920196 269.61399489 41.50441865 269.60827738 30.5796051 269.5970974 C25.94535155 269.59248171 21.31111983 269.59156446 16.67686462 269.59368324 C11.19394173 269.59558662 5.71111985 269.58730712 0.22821999 269.57162285 C-1.76981882 269.5674283 -3.76786797 269.56649626 -5.76590919 269.56931305 C-38.05901489 269.6078836 -71.26650849 266.25672459 -95.31665039 242.29052734 C-96.25444336 241.38753906 -96.25444336 241.38753906 -97.21118164 240.46630859 C-121.67532911 215.00813256 -118.80551177 174.4808916 -118.63922119 141.95654297 C-118.62581264 138.40693368 -118.63105955 134.8574502 -118.63607502 131.307827 C-118.72028275 52.98948916 -118.72028275 52.98948916 -92.75415039 26.10302734 C-68.34012631 1.94323453 -32.3470799 -0.0192882 0 0 Z " fill="#145EA4" transform="translate(137.316650390625,49.70947265625)"/>
<path d="M0 0 C0.93975677 -0.0049649 1.87951355 -0.00992981 2.8477478 -0.01504517 C5.92576864 -0.02952834 9.00373793 -0.03644622 12.08178711 -0.04199219 C13.1436215 -0.04481956 14.20545589 -0.04764694 15.29946709 -0.05056 C20.92116413 -0.06549787 26.54283588 -0.0747609 32.16455078 -0.07910156 C37.9246472 -0.08457193 43.68450556 -0.10858547 49.44452763 -0.13707352 C53.91538639 -0.1558424 58.38618947 -0.16091306 62.85708427 -0.16243744 C64.9782281 -0.16543346 67.09937169 -0.17335651 69.22047615 -0.18662262 C107.67725252 -0.40994353 107.67725252 -0.40994353 121.92163086 12.28613281 C132.49155713 23.96732273 133.36317834 38.1709998 133.34741211 53.07910156 C133.35130904 54.6245383 133.35564573 56.16997398 133.36039734 57.71540833 C133.36782747 60.94548013 133.3675928 64.17544258 133.36230469 67.40551758 C133.35653049 71.50580548 133.37340683 75.60563864 133.39664936 79.70585155 C133.41152477 82.89671868 133.41223958 86.08747995 133.40913963 89.27837563 C133.40964648 90.78795582 133.41476176 92.29754297 133.42495155 93.80708885 C133.51061536 108.27647589 132.5193338 122.50852941 122.67163086 133.91113281 C110.86111709 144.03443033 97.8968177 146.31363445 82.62011719 146.30639648 C81.59473846 146.3097551 80.56935974 146.31311371 79.51290894 146.3165741 C76.13481421 146.32604535 72.75676927 146.32802543 69.37866211 146.32910156 C67.01844767 146.3323173 64.65823343 146.33568161 62.29801941 146.33918762 C57.35280902 146.34516969 52.40761609 146.34702852 47.46240234 146.34643555 C41.14913007 146.34633409 34.83597068 146.35997323 28.52272511 146.37720776 C23.64716587 146.38836913 18.77163355 146.39035347 13.89606285 146.38982582 C11.56983744 146.3910002 9.2436112 146.39539132 6.91739845 146.40315819 C3.65155949 146.41303976 0.38596065 146.41004776 -2.87988281 146.40405273 C-4.29946541 146.41248199 -4.29946541 146.41248199 -5.74772644 146.42108154 C-18.91669506 146.36016014 -33.66606676 144.04562123 -43.95336914 135.16113281 C-53.08068181 124.60932626 -56.03238814 114.17928305 -56.11450195 100.34643555 C-56.1241095 99.03074081 -56.13371704 97.71504608 -56.14361572 96.35948181 C-56.14846675 94.93789852 -56.15274483 93.51631318 -56.15649414 92.09472656 C-56.15932152 91.36840593 -56.1621489 90.6420853 -56.16506195 89.89375496 C-56.18000246 86.04562143 -56.18926284 82.19752486 -56.19360352 78.34936523 C-56.19906334 74.41495168 -56.2230531 70.48088851 -56.25157547 66.54658413 C-56.27039141 63.4861204 -56.27541752 60.42573765 -56.27693939 57.36522102 C-56.27992678 55.9170345 -56.28781903 54.46884801 -56.30112457 53.02071953 C-56.42714643 38.24379223 -55.26216061 23.75079467 -44.89086914 12.47363281 C-32.76797911 0.92802326 -15.89779607 0.0205912 0 0 Z M-9.95336914 37.16113281 C-14.17463865 44.00721019 -14.51826263 50.48397424 -14.41430664 58.35253906 C-14.4133902 59.49722153 -14.41247375 60.64190399 -14.41152954 61.8212738 C-14.4055157 64.22911758 -14.38983707 66.63695465 -14.36499023 69.04467773 C-14.32844572 72.71594009 -14.3239717 76.38619168 -14.32446289 80.05761719 C-14.31463148 82.40593314 -14.30297438 84.75424231 -14.28930664 87.10253906 C-14.28708099 88.19232559 -14.28485535 89.28211212 -14.28256226 90.40492249 C-14.18748077 100.77120937 -14.18748077 100.77120937 -9.89086914 109.97363281 C-1.27749438 116.38784806 8.80558947 115.61961802 19.01538086 115.59472656 C20.66247776 115.59929584 22.30957276 115.60460362 23.95666504 115.61061096 C27.39607527 115.61950877 30.83525287 115.61715649 34.2746582 115.60717773 C38.66254227 115.59568181 43.04962228 115.61592566 47.43740082 115.64509487 C50.8348289 115.66351718 54.23206632 115.66315265 57.62953186 115.65745735 C59.24651723 115.65730493 60.86351617 115.6632833 62.48045349 115.67574883 C74.86408755 115.94106954 74.86408755 115.94106954 86.04663086 111.16113281 C90.40109728 106.04463477 91.15846462 101.39887447 91.20776367 94.85522461 C91.21737122 93.82032394 91.22697876 92.78542328 91.23687744 91.71916199 C91.24112732 90.61075455 91.2453772 89.50234711 91.24975586 88.36035156 C91.25545593 87.21000931 91.26115601 86.05966705 91.26702881 84.87446594 C91.27646465 82.44276851 91.28300716 80.01105838 91.28686523 77.5793457 C91.29656798 73.87265565 91.32760453 70.1665209 91.35913086 66.45996094 C91.36566174 64.09342776 91.37091188 61.72689063 91.37475586 59.36035156 C91.39327606 57.70684944 91.39327606 57.70684944 91.41217041 56.01994324 C91.3899714 48.29487554 90.85155775 42.16175228 85.35913086 36.28613281 C77.18150759 31.04011034 67.88660233 31.86592502 58.52319336 31.89550781 C57.01158587 31.89415783 55.49997881 31.89221452 53.9883728 31.88970947 C50.82968995 31.8867721 47.67112074 31.89100977 44.51245117 31.90039062 C40.48917362 31.91176471 36.46616358 31.90522989 32.44289589 31.8932457 C29.32339512 31.88597268 26.20395636 31.88834016 23.08445358 31.89350128 C21.60227806 31.8948238 20.12009668 31.89323979 18.63792801 31.88854218 C3.4083734 31.27977616 3.4083734 31.27977616 -9.95336914 37.16113281 Z " fill="#0D549E" transform="translate(472.953369140625,153.8388671875)"/>
<path d="M0 0 C1.24813477 -0.00642769 1.24813477 -0.00642769 2.52148438 -0.01298523 C4.27993866 -0.01872568 6.03841669 -0.01923088 7.796875 -0.01489258 C10.48999399 -0.0117305 13.18201668 -0.03520173 15.875 -0.06054688 C17.58333195 -0.06281966 19.29166685 -0.06352346 21 -0.0625 C21.80630859 -0.07170975 22.61261719 -0.08091949 23.44335938 -0.09040833 C29.0295843 -0.04406873 29.0295843 -0.04406873 31.2137804 1.55711079 C32.817567 3.73129265 32.87057371 4.8871097 32.86076355 7.57182312 C32.86488754 8.44260498 32.86901154 9.31338684 32.8732605 10.21055603 C32.86247467 11.16289627 32.85168884 12.11523651 32.84057617 13.09643555 C32.84123329 14.60401932 32.84123329 14.60401932 32.84190369 16.14205933 C32.83981075 19.46990264 32.8164555 22.79724451 32.79296875 26.125 C32.7873746 28.42999496 32.78310365 30.73499349 32.78010559 33.03999329 C32.76864261 39.11131613 32.73916274 45.18242421 32.70599365 51.25366211 C32.67532418 57.44707331 32.66160693 63.64051915 32.64648438 69.83398438 C32.61429459 81.98967778 32.56308055 94.14521167 32.5 106.30078125 C36.0008943 106.21903952 39.50015493 106.10627857 43 105.98828125 C43.98226562 105.96572266 44.96453125 105.94316406 45.9765625 105.91992188 C54.36689834 105.61227623 61.17310961 104.25550162 67.5 98.30078125 C68.91976026 96.67207514 70.29323783 95.00219604 71.625 93.30078125 C75.85928851 88.01497775 80.33809397 83.04140809 84.9375 78.078125 C87.5917494 75.20133944 90.17342191 72.27251532 92.73828125 69.31640625 C104.92209133 55.37661468 104.92209133 55.37661468 107.4354248 55.04681396 C108.22437134 55.04522278 109.01331787 55.04363159 109.82617188 55.04199219 C110.72049927 55.03568787 111.61482666 55.02938354 112.53625488 55.02288818 C113.50397827 55.02693665 114.47170166 55.03098511 115.46875 55.03515625 C116.45999878 55.0332428 117.45124756 55.03132935 118.47253418 55.02935791 C120.57072198 55.0279954 122.66891819 55.03169643 124.76708984 55.04003906 C127.98684546 55.05073754 131.20604308 55.04014589 134.42578125 55.02734375 C136.46093874 55.02866533 138.49609588 55.0312277 140.53125 55.03515625 C141.98283508 55.02908356 141.98283508 55.02908356 143.46374512 55.02288818 C144.35807251 55.0291925 145.2523999 55.03549683 146.17382812 55.04199219 C146.96277466 55.04358337 147.75172119 55.04517456 148.5645752 55.04681396 C150.5 55.30078125 150.5 55.30078125 152.5 57.30078125 C152.51278785 60.95171302 151.24072374 62.82268709 148.8046875 65.3515625 C147.67137145 66.44913143 146.52772956 67.53611952 145.375 68.61328125 C141.90204879 71.92142806 138.52087172 75.21623431 135.4140625 78.875 C129.41994708 85.83475055 122.7061624 92.1476247 116.17919922 98.60107422 C105.05622624 109.27563689 105.05622624 109.27563689 95.5 121.30078125 C96.985 121.79578125 96.985 121.79578125 98.5 122.30078125 C100.0078125 123.83203125 100.0078125 123.83203125 101.625 125.80078125 C104.92289782 129.69703184 108.43128763 133.27889612 112.09375 136.83203125 C114.07116014 138.86080269 115.9341262 140.92030085 117.7890625 143.05859375 C121.53598058 147.37670064 125.43848566 151.5308855 129.375 155.67578125 C133.63124224 160.1760119 137.88147393 164.67340254 142 169.30078125 C146.17034941 173.98030123 150.45516778 178.5483338 154.75 183.11328125 C155.77963867 184.20866211 155.77963867 184.20866211 156.83007812 185.32617188 C159.66610492 188.33407908 162.49810073 191.31663326 165.48828125 194.171875 C167.5 196.30078125 167.5 196.30078125 167.4375 198.55078125 C166.5 200.30078125 166.5 200.30078125 164.5 201.30078125 C162.95404885 201.40581587 161.40371332 201.4494813 159.85424805 201.46191406 C158.88952072 201.47152161 157.9247934 201.48112915 156.93083191 201.49102783 C155.88502457 201.49527771 154.83921722 201.49952759 153.76171875 201.50390625 C152.68880081 201.50960632 151.61588287 201.5153064 150.51045227 201.5211792 C148.23655181 201.53063808 145.96263758 201.53716669 143.6887207 201.54101562 C140.21215825 201.55071247 136.73618902 201.58172447 133.25976562 201.61328125 C131.05208685 201.61981204 128.84440384 201.62506222 126.63671875 201.62890625 C125.5969841 201.64125305 124.55724945 201.65359985 123.48600769 201.6663208 C114.48433939 201.63859 114.48433939 201.63859 110.5 198.30078125 C108.4296875 196.05859375 108.4296875 196.05859375 106.375 193.42578125 C105.6015625 192.45125 104.828125 191.47671875 104.03125 190.47265625 C103.62261719 189.95638672 103.21398437 189.44011719 102.79296875 188.90820312 C100.54571973 186.11441772 98.20502135 183.40053187 95.875 180.67578125 C92.21309247 176.37341665 88.66189415 172.00890608 85.2265625 167.5234375 C82.54649234 164.07330193 79.75084117 160.7196078 76.96875 157.3515625 C75.16237841 155.11932165 73.3970715 152.87593883 71.65625 150.59375 C71.17317383 149.96428467 70.69009766 149.33481934 70.19238281 148.6862793 C69.25235007 147.45745857 68.3190417 146.22345536 67.39355469 144.98364258 C63.74649802 140.23123262 60.36433577 137.50802827 54.5 136.30078125 C52.7683761 136.15704895 51.03301667 136.05503193 49.296875 135.984375 C47.82734375 135.9215332 47.82734375 135.9215332 46.328125 135.85742188 C45.31234375 135.81810547 44.2965625 135.77878906 43.25 135.73828125 C42.21875 135.69509766 41.1875 135.65191406 40.125 135.60742188 C37.5834613 135.50152443 35.04182804 135.39944682 32.5 135.30078125 C32.50666183 136.08338821 32.51332367 136.86599518 32.52018738 137.6723175 C32.58027432 145.04415247 32.6259619 152.41586886 32.65543652 159.78788471 C32.6710991 163.57801565 32.69234778 167.36794441 32.72631836 171.15795898 C32.7588913 174.81488726 32.77684855 178.47162095 32.78463173 182.12868309 C32.79017901 183.52456921 32.8010115 184.92044456 32.81719017 186.31624794 C32.83893429 188.26972715 32.84022515 190.22340176 32.84057617 192.17700195 C32.84723801 193.28952835 32.85389984 194.40205475 32.86076355 195.54829407 C32.5 198.30078125 32.5 198.30078125 31.22177124 200.1602478 C28.11150171 202.22054847 24.3561348 201.70405623 20.74609375 201.6640625 C19.46110741 201.66481026 19.46110741 201.66481026 18.15016174 201.66557312 C16.34039997 201.66323364 14.53063488 201.65351246 12.72094727 201.63696289 C9.94452985 201.61334106 7.16907067 201.61640631 4.39257812 201.62304688 C2.63541092 201.61747111 0.87824777 201.61036187 -0.87890625 201.6015625 C-2.12892174 201.60292961 -2.12892174 201.60292961 -3.40419006 201.60432434 C-9.26896654 201.53181471 -9.26896654 201.53181471 -11.5 199.30078125 C-11.69973071 196.6972587 -11.77366152 194.19974806 -11.76069641 191.59484863 C-11.76452196 190.7900911 -11.76834751 189.98533357 -11.77228898 189.15618944 C-11.78265374 186.4445557 -11.77862031 183.73313234 -11.7746582 181.02148438 C-11.77900273 179.08357038 -11.784185 177.14565811 -11.79014587 175.20774841 C-11.80357423 169.93308814 -11.80411035 164.65849935 -11.80158257 159.3838253 C-11.80051558 154.98736187 -11.80538918 150.59091307 -11.810188 146.19445276 C-11.82129619 135.82705251 -11.82171304 125.45968849 -11.81567383 115.09228516 C-11.80963001 104.3801859 -11.82195244 93.66821786 -11.8432439 82.956141 C-11.8608282 73.77312202 -11.86686633 64.59014494 -11.86360615 55.40710974 C-11.86178827 49.91627278 -11.86447962 44.42552943 -11.87832069 38.93470764 C-11.89084317 33.7735669 -11.88900818 28.61263159 -11.87590981 23.45149422 C-11.87353234 21.55273941 -11.8763202 19.65397039 -11.88453293 17.75523186 C-11.8949037 15.17214985 -11.88697858 12.58976964 -11.8742218 10.00671387 C-11.88159609 9.24738698 -11.88897037 8.48806008 -11.89656812 7.70572329 C-11.87473011 5.61791229 -11.87473011 5.61791229 -11.5 2.30078125 C-7.65265102 -0.26411807 -4.46176675 -0.00504334 0 0 Z " fill="#0F58A0" transform="translate(813.5,98.69921875)"/>
<path d="M0 0 C2.15983664 -0.00389793 4.31967252 -0.00823481 6.47950745 -0.01298523 C10.98351539 -0.02040169 15.48744488 -0.02018918 19.99145508 -0.01489258 C25.72126067 -0.00909771 31.45074303 -0.02605211 37.18049526 -0.04923725 C41.63415864 -0.0640706 46.08774581 -0.06483342 50.54142952 -0.06172752 C52.65222883 -0.06223571 54.76303299 -0.06737721 56.87380791 -0.07753944 C74.96078934 -0.15396699 92.98447602 -0.03913937 107.625 12.11328125 C114.67052036 19.38607646 118.55394918 29.96377138 118.57511902 40.0266571 C118.58151649 41.40834579 118.58151649 41.40834579 118.58804321 42.81794739 C118.58759003 43.81605942 118.58713684 44.81417145 118.58666992 45.8425293 C118.59002853 46.90318604 118.59338715 47.96384277 118.59684753 49.05664062 C118.60633851 52.55860569 118.60829935 56.06052289 118.609375 59.5625 C118.61258753 61.99436971 118.6159516 64.42623922 118.61946106 66.85810852 C118.62544673 71.95139006 118.6273014 77.04465464 118.62670898 82.13793945 C118.62660709 88.67869536 118.64029019 95.21934339 118.65748119 101.76007366 C118.66857023 106.77934779 118.67062919 111.79859551 118.67009926 116.81788063 C118.67128287 119.23052151 118.67572582 121.64316299 118.68343163 124.05579185 C118.69317435 127.41967856 118.6903768 130.78332666 118.68432617 134.1472168 C118.68994568 135.15140152 118.69556519 136.15558624 118.70135498 137.19020081 C118.69716049 138.10286713 118.692966 139.01553345 118.68864441 139.95585632 C118.68918918 140.75132213 118.68973394 141.54678793 118.69029522 142.36635876 C118.44140625 144.30078125 118.44140625 144.30078125 116.44140625 146.30078125 C113.59600483 146.50068352 110.85002841 146.58055101 108.00390625 146.56640625 C107.16802979 146.5683197 106.33215332 146.57023315 105.47094727 146.57220459 C103.70230814 146.57356661 101.93365902 146.56986901 100.16503906 146.56152344 C97.45224631 146.550824 94.74011581 146.56141801 92.02734375 146.57421875 C90.31119645 146.57289716 88.59504956 146.57033477 86.87890625 146.56640625 C85.65699585 146.57247894 85.65699585 146.57247894 84.41040039 146.57867432 C78.67132553 146.53070053 78.67132553 146.53070053 76.44140625 144.30078125 C76.24426429 141.209051 76.17195635 138.20564284 76.18603516 135.11279297 C76.18060448 133.68322517 76.18060448 133.68322517 76.17506409 132.22477722 C76.1681574 130.14967686 76.16566702 128.07455829 76.16701126 125.99944687 C76.16797414 122.71208114 76.15506081 119.42504456 76.13803101 116.13772583 C76.09169736 106.78910924 76.06716607 97.44052424 76.06054688 88.09179688 C76.05552433 82.37702627 76.03123041 76.66259605 75.99522018 70.94794083 C75.9854338 68.77194388 75.98308387 66.59590002 75.98839188 64.41988754 C75.99548393 61.36793613 75.97813353 58.31699298 75.95556641 55.26513672 C75.96373886 54.3713179 75.97191132 53.47749908 75.98033142 52.55659485 C75.90428495 46.75361345 74.87029547 42.08959101 71.44140625 37.30078125 C65.75507059 33.46868548 59.63677009 33.17843968 52.9362793 33.15551758 C51.0285096 33.1459478 51.0285096 33.1459478 49.0821991 33.13618469 C47.70584145 33.13465556 46.3294833 33.13354184 44.953125 33.1328125 C43.5259447 33.12959448 42.09876471 33.12623 40.67158508 33.12272644 C37.68510169 33.11675357 34.69864715 33.11488461 31.7121582 33.11547852 C27.90621447 33.11557997 24.10045798 33.10193686 20.29455853 33.08470631 C17.34753081 33.07352619 14.40054749 33.07156115 11.45350075 33.07208824 C10.051434 33.07091682 8.64936579 33.06654273 7.24732018 33.05875587 C-7.01444862 32.59247711 -7.01444862 32.59247711 -19.55859375 38.30078125 C-22.37501049 44.42839497 -22.98984956 49.48537787 -22.94335938 56.17333984 C-22.94873215 57.12714539 -22.95410492 58.08095093 -22.9596405 59.06365967 C-22.96937579 61.12064979 -22.9723756 63.17768078 -22.96928406 65.23469162 C-22.96479107 68.48735848 -22.97884514 71.73948571 -22.99768066 74.99209595 C-23.04061242 83.0615981 -23.05174743 91.13108717 -23.06390381 99.20068359 C-23.07540644 106.03680606 -23.09887183 112.87267977 -23.13859558 119.70869827 C-23.15221335 122.91848276 -23.14798824 126.12793578 -23.14318848 129.33773804 C-23.15252231 131.2933597 -23.16268941 133.24897763 -23.17382812 135.20458984 C-23.1676799 136.10120331 -23.16153168 136.99781677 -23.15519714 137.92160034 C-23.18005371 140.39364624 -23.18005371 140.39364624 -23.55859375 144.30078125 C-27.3697772 146.84157022 -30.45942548 146.58910422 -34.875 146.56640625 C-36.09339821 146.56927643 -36.09339821 146.56927643 -37.33641052 146.57220459 C-39.05199494 146.57356472 -40.7675897 146.56988029 -42.4831543 146.56152344 C-45.11465444 146.55080747 -47.74547404 146.56143145 -50.37695312 146.57421875 C-52.04297026 146.5728974 -53.70898697 146.5703355 -55.375 146.56640625 C-56.55939415 146.57247894 -56.55939415 146.57247894 -57.76771545 146.57867432 C-63.328664 146.530711 -63.328664 146.530711 -65.55859375 144.30078125 C-65.81586266 142.35747051 -65.81586266 142.35747051 -65.82601929 139.9337616 C-65.83454926 139.01582825 -65.84307922 138.0978949 -65.85186768 137.15214539 C-65.8509613 136.14182755 -65.85005493 135.1315097 -65.84912109 134.09057617 C-65.85583832 133.02851959 -65.86255554 131.96646301 -65.86947632 130.8722229 C-65.88855468 127.3418516 -65.89238674 123.81166974 -65.89453125 120.28125 C-65.9009569 117.82660341 -65.90768508 115.37195759 -65.91470337 112.91731262 C-65.92670392 107.75808948 -65.9303818 102.59893339 -65.92919922 97.43969727 C-65.92899691 90.85384309 -65.95619519 84.26842474 -65.99074364 77.68267345 C-66.01308341 72.60459963 -66.01703444 67.52662904 -66.01597977 62.44851112 C-66.01832907 60.0226219 -66.02711446 57.59672955 -66.0426445 55.1708889 C-66.14631904 37.28828865 -66.0295958 23.02109287 -52.93359375 9.61328125 C-38.17719637 -1.67326558 -17.52112989 -0.01330434 0 0 Z " fill="#0B529C" transform="translate(1170.55859375,153.69921875)"/>
<path d="M0 0 C2.55113291 -0.00389202 5.10226517 -0.00822773 7.65339661 -0.01298523 C12.97118512 -0.02040952 18.2889043 -0.0203212 23.60668945 -0.01489258 C29.75090113 -0.00881732 35.89488586 -0.02127118 42.03905886 -0.04246265 C47.97325393 -0.06217392 53.90737825 -0.06525749 59.84160805 -0.06172752 C62.35948537 -0.06224161 64.87736628 -0.0674957 67.39522362 -0.07753944 C70.89932507 -0.08981841 74.40289015 -0.08316666 77.90698242 -0.0715332 C78.9495369 -0.07917694 79.99209137 -0.08682068 81.0662384 -0.09469604 C82.01775787 -0.08768173 82.96927734 -0.08066742 83.94963074 -0.07344055 C84.77673144 -0.07360829 85.60383215 -0.07377604 86.45599651 -0.07394886 C89.10503137 0.39296408 89.99214737 1.16003421 91.58203125 3.30078125 C91.92260742 6.21166992 91.92260742 6.21166992 91.875 9.71875 C91.86533203 10.97236328 91.85566406 12.22597656 91.84570312 13.51757812 C91.82056641 14.82791016 91.79542969 16.13824219 91.76953125 17.48828125 C91.75448092 18.82355288 91.74079312 20.15884062 91.72851562 21.49414062 C91.69310819 24.76342701 91.64372015 28.03190218 91.58203125 31.30078125 C89.31871437 32.43243969 88.0800538 32.43229771 85.56773376 32.44554138 C84.72816132 32.45243988 83.88858887 32.45933838 83.02357483 32.46644592 C82.10048019 32.4690593 81.17738556 32.47167267 80.22631836 32.47436523 C79.25537231 32.48105225 78.28442627 32.48773926 77.28405762 32.49462891 C75.16967473 32.50870375 73.05527643 32.52059 70.94087029 32.53057671 C67.59028971 32.54696837 64.23982217 32.57020867 60.88929749 32.59547424 C51.36058179 32.66627867 41.83181832 32.72621687 32.30297852 32.77758789 C26.47805288 32.8094725 20.65325436 32.85077965 14.82843208 32.89778328 C12.61139794 32.91375554 10.39433448 32.92609904 8.17725945 32.93469048 C5.06587799 32.94691499 1.95479209 32.97109724 -1.15649414 32.99780273 C-2.06541916 32.99839188 -2.97434418 32.99898102 -3.91081238 32.99958801 C-10.67923234 33.07613501 -17.35947502 33.50557841 -23.29296875 36.98828125 C-29.05604987 43.25986953 -28.8505464 49.98044807 -28.78125 58.078125 C-28.7817485 59.20344131 -28.78224701 60.32875763 -28.78276062 61.48817444 C-28.7804269 63.86086803 -28.77074 66.23356443 -28.75415039 68.60620117 C-28.73057021 72.22272068 -28.73359394 75.83850128 -28.74023438 79.45507812 C-28.73465645 81.76693145 -28.72754586 84.07878168 -28.71875 86.390625 C-28.71966141 87.46481186 -28.72057281 88.53899872 -28.72151184 89.64573669 C-28.62557672 99.93235234 -28.62557672 99.93235234 -24.41796875 109.11328125 C-17.48870836 114.16586695 -9.38045175 114.74356878 -1.04296875 114.70141602 C0.43206871 114.71188461 0.43206871 114.71188461 1.93690491 114.7225647 C5.15203667 114.74238707 8.36684415 114.74204065 11.58203125 114.7421875 C13.82740131 114.75396812 16.07276356 114.76733401 18.31811523 114.7822113 C24.20269181 114.81826723 30.08719904 114.83856709 35.97186279 114.85375977 C45.4184337 114.87867422 54.86485174 114.91808837 64.3112793 114.97566032 C67.61185264 114.99202547 70.91228166 114.99576896 74.21289062 114.99867249 C76.22265884 115.00844207 78.23242475 115.01870424 80.2421875 115.02954102 C81.62447289 115.02571159 81.62447289 115.02571159 83.03468323 115.02180481 C83.87281052 115.02863281 84.71093781 115.03546082 85.57446289 115.04249573 C86.30443985 115.04413003 87.03441681 115.04576433 87.78651428 115.04744816 C89.58203125 115.30078125 89.58203125 115.30078125 91.58203125 117.30078125 C91.84082031 119.97460938 91.84082031 119.97460938 91.84765625 123.33203125 C91.85023438 124.53472656 91.8528125 125.73742187 91.85546875 126.9765625 C91.84773437 128.23855469 91.84 129.50054687 91.83203125 130.80078125 C91.83976563 132.06277344 91.8475 133.32476562 91.85546875 134.625 C91.85289062 135.82769531 91.8503125 137.03039062 91.84765625 138.26953125 C91.84540039 139.37748047 91.84314453 140.48542969 91.84082031 141.62695312 C91.58203125 144.30078125 91.58203125 144.30078125 89.58203125 146.30078125 C87.51098824 146.55246353 87.51098824 146.55246353 84.90457153 146.55474854 C83.42453392 146.56320801 83.42453392 146.56320801 81.91459656 146.57183838 C80.82790176 146.56778992 79.74120697 146.56374146 78.62158203 146.55957031 C77.47989059 146.56307495 76.33819916 146.56657959 75.16191101 146.57019043 C71.36699432 146.57903027 67.57226253 146.57314671 63.77734375 146.56640625 C61.14093998 146.56775318 58.50453646 146.56969395 55.86813354 146.57220459 C50.32808422 146.57584836 44.78808812 146.57103976 39.24804688 146.56152344 C32.86914193 146.55069172 26.49036537 146.55412406 20.11146367 146.56517625 C14.62252278 146.57430188 9.13362022 146.5755072 3.64467418 146.57029891 C0.37241681 146.56720109 -2.89976818 146.56750769 -6.17202377 146.57337189 C-9.8359598 146.5784922 -13.49965588 146.57064739 -17.16357422 146.55957031 C-18.2300267 146.56361877 -19.29647919 146.56766724 -20.39524841 146.57183838 C-34.98826346 146.49074636 -50.59747296 143.97603548 -61.41796875 133.30078125 C-68.98516463 124.18222402 -71.52654786 113.96783996 -71.56323242 102.27661133 C-71.56659103 101.60090088 -71.56994965 100.92519043 -71.57341003 100.22900391 C-71.58285755 98.00942105 -71.58486029 95.78991418 -71.5859375 93.5703125 C-71.58915538 92.013402 -71.59251984 90.45649179 -71.59602356 88.89958191 C-71.60200007 85.6390208 -71.60386508 82.37848612 -71.60327148 79.11791992 C-71.60317018 74.96691059 -71.61679657 70.81607351 -71.63404369 66.66510487 C-71.64523796 63.4486363 -71.64718839 60.23220832 -71.64666176 57.01572227 C-71.64783171 55.48691911 -71.65219725 53.95811455 -71.65999413 52.42933083 C-71.72738723 37.84538461 -70.49165546 26.32454436 -62.23046875 14.05078125 C-45.73483667 -2.07828123 -21.29516679 -0.0135503 0 0 Z " fill="#0B519B" transform="translate(694.41796875,153.69921875)"/>
<path d="M0 0 C0.85428589 -0.00287018 1.70857178 -0.00574036 2.58874512 -0.00869751 C4.39429385 -0.01073831 6.19986469 -0.00520733 8.00537109 0.00732422 C10.77101012 0.02337806 13.53518775 0.00747651 16.30078125 -0.01171875 C18.05469073 -0.00973632 19.8085993 -0.00589265 21.5625 0 C22.39068237 -0.00607269 23.21886475 -0.01214539 24.07214355 -0.0184021 C29.70534186 0.05069929 29.70534186 0.05069929 31.999506 1.43593502 C33.9959509 4.49272957 33.69361465 7.65423884 33.66220093 11.18666077 C33.66922089 12.38895337 33.66922089 12.38895337 33.67638266 13.61553472 C33.68838087 16.31034409 33.67885677 19.00464944 33.66943359 21.69946289 C33.67349712 23.62767332 33.67883777 25.55588142 33.68536377 27.48408508 C33.69906827 32.72773396 33.69372603 37.97120624 33.68422651 43.21485829 C33.67664722 48.69389791 33.6836706 54.17292209 33.68838501 59.65196228 C33.69384715 68.85304488 33.68663842 78.0540553 33.67236328 87.25512695 C33.65603107 97.90533861 33.66132761 108.55537804 33.6778425 119.20558554 C33.69143852 128.33767617 33.69338641 137.46971483 33.68552649 146.6018123 C33.68084021 152.06132771 33.68025135 157.52076204 33.69013596 162.98027229 C33.69877614 168.11107037 33.69283789 173.24164547 33.67545319 178.37241936 C33.67147273 180.25988265 33.67264884 182.14736458 33.67924118 184.03482056 C33.6873854 186.60253652 33.6772223 189.1695286 33.66220093 191.73719788 C33.67223918 192.86932861 33.67223918 192.86932861 33.68248022 194.02433068 C33.65877342 196.09971714 33.65877342 196.09971714 33.28125 199.3984375 C29.38500984 201.99593094 26.08324379 201.70419379 21.5625 201.69921875 C20.70821411 201.70350388 19.85392822 201.707789 18.97375488 201.71220398 C17.16822191 201.71794496 15.3626658 201.71844924 13.55712891 201.71411133 C10.79159227 201.71094932 8.02712326 201.73441977 5.26171875 201.75976562 C3.50781385 201.7620384 1.75390607 201.76274221 0 201.76171875 C-0.82818237 201.7709285 -1.65636475 201.78013824 -2.50964355 201.78962708 C-8.14731272 201.74407529 -8.14731272 201.74407529 -10.437006 200.35913849 C-12.42767692 197.31398249 -12.13119319 194.17464081 -12.09970093 190.65490723 C-12.1043809 189.85816794 -12.10906087 189.06142865 -12.11388266 188.24054575 C-12.12588062 185.56188888 -12.11635685 182.88373909 -12.10693359 180.20507812 C-12.11099717 178.28834229 -12.11633784 176.37160879 -12.12286377 174.45487976 C-12.13656866 169.24215415 -12.13122563 164.02960618 -12.12172651 158.81687737 C-12.11414634 153.36900214 -12.12117095 147.92114241 -12.12588501 142.4732666 C-12.13134736 133.32345847 -12.12413838 124.17372291 -12.10986328 115.02392578 C-12.09353587 104.43621775 -12.09882404 93.84868301 -12.1153425 83.26097918 C-12.12894372 74.18067707 -12.13088371 65.10042723 -12.12302649 56.02011824 C-12.11834246 50.59242886 -12.11774512 45.16482102 -12.12763596 39.73713684 C-12.1362835 34.63506241 -12.13032426 29.53321203 -12.11295319 24.43116188 C-12.10897649 22.55540655 -12.11014249 20.67963245 -12.11674118 18.80388451 C-12.12490022 16.24965517 -12.11470396 13.69615053 -12.09970093 11.14196777 C-12.10639309 10.39401774 -12.11308526 9.64606771 -12.11998022 8.87545252 C-12.08681742 5.97857669 -12.04776264 3.90147795 -10.437006 1.43872833 C-7.28687573 -0.46846806 -3.57840343 -0.02623884 0 0 Z " fill="#135DA3" transform="translate(1052.71875,98.6015625)"/>
<path d="M0 0 C1.25001549 0.00136711 1.25001549 0.00136711 2.52528381 0.00276184 C3.80883507 -0.00366585 3.80883507 -0.00366585 5.11831665 -0.01022339 C6.92982599 -0.01597159 8.74135842 -0.01646335 10.5528717 -0.01213074 C13.32727912 -0.00897331 16.10061793 -0.03241432 18.87489319 -0.05778503 C20.63335538 -0.0600582 22.39182045 -0.06076144 24.15028381 -0.05973816 C24.98160324 -0.06894791 25.81292267 -0.07815765 26.66943359 -0.08764648 C32.33244608 -0.0420807 32.33244608 -0.0420807 34.62343788 1.3428421 C36.61274486 4.38826823 36.31662984 7.52772101 36.28514099 11.04707336 C36.29216095 12.2421823 36.29216095 12.2421823 36.29932272 13.46143484 C36.31132068 16.14009171 36.30179691 18.8182415 36.29237366 21.49690247 C36.29643723 23.4136383 36.3017779 25.3303718 36.30830383 27.24710083 C36.32200873 32.45982644 36.3166657 37.67237441 36.30716658 42.88510323 C36.2995864 48.33297845 36.30661101 53.78083818 36.31132507 59.22871399 C36.31678742 68.37852213 36.30957844 77.52825768 36.29530334 86.67805481 C36.27897594 97.26576284 36.28426411 107.85329758 36.30078256 118.44100142 C36.31438378 127.52130352 36.31632377 136.60155336 36.30846655 145.68186235 C36.30378253 151.10955173 36.30318519 156.53715957 36.31307602 161.96484375 C36.32172357 167.06691818 36.31576432 172.16876856 36.29839325 177.27081871 C36.29441656 179.14657404 36.29558256 181.02234814 36.30218124 182.89809608 C36.31034028 185.45232542 36.30014402 188.00583007 36.28514099 190.56001282 C36.29517924 191.68193787 36.29517924 191.68193787 36.30542028 192.82652807 C36.27226066 195.72312677 36.2325229 197.80089899 34.62343788 200.26424408 C31.46404207 202.17412404 27.73671598 201.70655652 24.15028381 201.66682434 C22.86529747 201.6675721 22.86529747 201.6675721 21.55435181 201.66833496 C19.74459003 201.66599548 17.93482494 201.6562743 16.12513733 201.63972473 C13.34871991 201.6161029 10.57326074 201.61916815 7.79676819 201.62580872 C6.03960098 201.62023295 4.28243783 201.61312371 2.52528381 201.60432434 C1.27526833 201.60569145 1.27526833 201.60569145 0 201.60708618 C-5.86477648 201.53457655 -5.86477648 201.53457655 -8.09580994 199.30354309 C-8.29335961 196.69987085 -8.36508215 194.20247257 -8.34977722 191.59761047 C-8.3528972 190.79285294 -8.35601718 189.98809541 -8.35923171 189.15895128 C-8.36724451 186.44730964 -8.36087537 183.73588975 -8.354599 181.02424622 C-8.35730741 179.08633289 -8.36086749 177.14842059 -8.36521912 175.21051025 C-8.37436327 169.93584371 -8.37079054 164.66125511 -8.36446095 159.38658714 C-8.35941141 153.87684793 -8.36408947 148.36711556 -8.36723328 142.8573761 C-8.37087599 133.60325416 -8.36606584 124.3491641 -8.35655212 115.095047 C-8.345667 104.38297295 -8.34919236 93.67097503 -8.36020494 82.95890284 C-8.36926914 73.77588577 -8.37056734 64.59289167 -8.3653276 55.40987158 C-8.36220312 49.91905818 -8.36181161 44.42828061 -8.36840057 38.93746948 C-8.37416083 33.77636194 -8.37020144 28.61535291 -8.35861206 23.45425606 C-8.35595838 21.55550361 -8.35674254 19.65674292 -8.36113739 17.7579937 C-8.3665665 15.17504088 -8.35979105 12.5924079 -8.34977722 10.00947571 C-8.35423867 9.25014882 -8.35870011 8.49082192 -8.36329675 7.70848513 C-8.31144765 0.8591116 -6.70778718 0.08293226 0 0 Z " fill="#125EA5" transform="translate(364.09580993652344,98.69645690917969)"/>
<path d="M0 0 C6.57593413 4.6345585 12.28572274 10.76781277 13.69921875 18.90234375 C14.48690145 27.7581478 14.27863631 35.92824323 8.96484375 43.3125 C4.18467264 49.00979696 -0.79547663 53.47959905 -8.30078125 54.90234375 C-19.52682155 55.69953637 -27.54856561 54.84216234 -36.55078125 47.77734375 C-42.66675609 42.12525523 -45.98291407 34.51141781 -46.55078125 26.27734375 C-46.42477932 17.83521467 -43.4157179 10.15475044 -37.546875 4.08984375 C-26.82105056 -5.98529467 -12.96131207 -7.35454957 0 0 Z " fill="#105BA3" transform="translate(216.30078125,176.09765625)"/>
<path d="M0 0 C1.11976227 -0.00175232 2.23952454 -0.00350464 3.39321899 -0.00531006 C7.06823304 -0.00968648 10.74319841 -0.00680686 14.41821289 -0.00341797 C16.97888702 -0.00409188 19.53956108 -0.00506264 22.10023499 -0.00631714 C27.45208406 -0.00778812 32.80391584 -0.00575367 38.15576172 -0.00097656 C44.34468657 0.00448388 50.53357857 0.00268702 56.72250265 -0.00280297 C62.68604808 -0.0078811 68.64958328 -0.00735288 74.61313057 -0.00442123 C77.14857551 -0.00375273 79.68402129 -0.00457774 82.21946526 -0.00690079 C85.75049983 -0.00942779 89.28147023 -0.00558692 92.8125 0 C94.39350746 -0.00303635 94.39350746 -0.00303635 96.00645447 -0.00613403 C96.96382507 -0.00331421 97.92119568 -0.00049438 98.90757751 0.00241089 C100.1593524 0.00297643 100.1593524 0.00297643 101.43641567 0.00355339 C103.45336914 0.12939453 103.45336914 0.12939453 105.45336914 1.12939453 C104.45336914 3.12939453 104.45336914 3.12939453 101.95336914 4.00439453 C101.12836914 4.37564453 100.30336914 4.74689453 99.45336914 5.12939453 C98.76189038 7.15475234 98.76189038 7.15475234 98.45336914 9.12939453 C85.39594846 9.93952288 72.34848367 10.25861134 59.26977539 10.41064453 C58.04954744 10.42496521 58.04954744 10.42496521 56.80466843 10.4395752 C50.01028604 10.51792411 43.2158158 10.58720635 36.42132568 10.65545654 C31.32409275 10.7068953 26.22691988 10.76180474 21.12977409 10.8212738 C18.78262643 10.84730873 16.4354705 10.86842182 14.08827209 10.88928223 C-14.29151953 10.83776385 -14.29151953 10.83776385 -38.53881836 23.97705078 C-42.91652508 28.54548747 -45.05875742 33.00785809 -46.54663086 39.12939453 C-47.20663086 39.12939453 -47.86663086 39.12939453 -48.54663086 39.12939453 C-49.31277395 31.16150634 -46.92288088 23.74296345 -42.17163086 17.25048828 C-40.85913086 15.87939453 -40.85913086 15.87939453 -38.54663086 14.12939453 C-37.88663086 14.12939453 -37.22663086 14.12939453 -36.54663086 14.12939453 C-37.20663086 11.81939453 -37.86663086 9.50939453 -38.54663086 7.12939453 C-26.07456979 1.05553028 -13.73733715 -0.02674226 0 0 Z " fill="#2379BB" transform="translate(679.546630859375,153.87060546875)"/>
<path d="M0 0 C3.5081682 2.85548574 5.99390751 5.52847783 7 10 C5.83219858 14.0493636 4.43241387 15.83063204 0.92431641 18.1027832 C0.08228668 18.65718582 -0.75974304 19.21158844 -1.62728882 19.78279114 C-2.54176788 20.36622787 -3.45624695 20.94966461 -4.3984375 21.55078125 C-5.8164415 22.47723701 -5.8164415 22.47723701 -7.26309204 23.42240906 C-10.29265981 25.39797638 -13.33342467 27.35548197 -16.375 29.3125 C-18.38489305 30.61794286 -20.39401662 31.92457124 -22.40234375 33.23242188 C-25.31761814 35.13071 -28.2346257 37.02579868 -31.15985107 38.90872192 C-35.10022811 41.44594262 -39.02615218 43.98257149 -42.84472656 46.70068359 C-43.87823242 47.4323877 -44.91173828 48.1640918 -45.9765625 48.91796875 C-47.21913818 49.83292114 -47.21913818 49.83292114 -48.48681641 50.76635742 C-51.80624927 52.39576234 -54.35040608 52.30068136 -58 52 C-60.03125 50.71484375 -60.03125 50.71484375 -61.5 48.9375 C-62.0053125 48.36902344 -62.510625 47.80054688 -63.03125 47.21484375 C-64.58603584 43.66015193 -64.17531533 41.67286041 -63 38 C-60.62165407 35.61509896 -57.87674058 33.97793538 -55 32.25 C-53.78473633 31.48139648 -53.78473633 31.48139648 -52.54492188 30.69726562 C-50.86110824 29.63359781 -49.1715542 28.57896635 -47.4765625 27.53320312 C-43.78083699 25.24523426 -40.14347437 22.86989335 -36.5 20.5 C-35.10940066 19.60412683 -33.7187754 18.7082939 -32.328125 17.8125 C-26.83654417 14.2594219 -21.40310726 10.61921286 -15.97460938 6.97070312 C-4.29816511 -0.85963302 -4.29816511 -0.85963302 0 0 Z " fill="#1462A8" transform="translate(292,131)"/>
<path d="M0 0 C2.83170506 1.55252175 5.49018564 3.34235277 8.16796875 5.14453125 C9.35849602 5.93207039 9.35849602 5.93207039 10.57307434 6.73551941 C13.11625148 8.42040089 15.65190841 10.11623003 18.1875 11.8125 C19.84261556 12.91153562 21.49821046 14.00984974 23.15429688 15.10742188 C27.2749847 17.84106404 31.38866745 20.58504519 35.50042725 23.33209229 C38.07041074 25.04698348 40.64344091 26.75721819 43.21728516 28.46630859 C44.05052811 29.02009689 44.88377106 29.57388519 45.74226379 30.14445496 C47.33426046 31.20246198 48.92675969 32.25971329 50.51982117 33.31611633 C51.22653458 33.78631699 51.93324799 34.25651764 52.66137695 34.7409668 C53.28414017 35.15452927 53.90690338 35.56809174 54.54853821 35.9941864 C56 37 56 37 57 38 C56.84055571 42.06582951 56.25804539 45.14513466 53.875 48.4375 C51 51 51 51 47.95703125 51.56640625 C42.20375027 50.74288627 38.4861563 47.81960634 33.8125 44.5 C32.87341797 43.85289062 31.93433594 43.20578125 30.96679688 42.5390625 C29.11502964 41.26268868 27.26737503 39.98032321 25.42431641 38.69140625 C22.64376676 36.75146184 19.82972007 34.86736954 17 33 C13.22389977 30.48443469 9.4510108 27.96412459 5.6796875 25.44140625 C3.74479736 24.14842899 1.80990148 22.8554603 -0.125 21.5625 C-1.53265625 20.61987305 -1.53265625 20.61987305 -2.96875 19.65820312 C-3.84789063 19.07103516 -4.72703125 18.48386719 -5.6328125 17.87890625 C-6.42574707 17.3485376 -7.21868164 16.81816895 -8.03564453 16.27172852 C-9.96400139 14.97188588 -9.96400139 14.97188588 -12 14 C-12.875 11.3125 -12.875 11.3125 -13 8 C-9.83589989 2.02336647 -6.93801284 -2.13789314 0 0 Z " fill="#1664AA" transform="translate(116,132)"/>
<path d="M0 0 C1.18238503 -0.00262848 1.18238503 -0.00262848 2.38865662 -0.00531006 C4.9634733 -0.00966868 7.53821987 -0.00681217 10.11303711 -0.00341797 C11.91946933 -0.00409266 13.72590146 -0.00506407 15.53233337 -0.00631714 C19.3054186 -0.00778594 23.07848005 -0.00566567 26.8515625 -0.00097656 C31.67196829 0.00472433 36.49231844 0.00143423 41.31272221 -0.00454903 C45.03861404 -0.00817324 48.76449282 -0.00700758 52.49038506 -0.00442123 C54.26727747 -0.00375733 56.04417109 -0.00456152 57.82106209 -0.00690079 C60.30912516 -0.00945842 62.79709972 -0.00554335 65.28515625 0 C66.0090152 -0.00202423 66.73287415 -0.00404846 67.47866821 -0.00613403 C72.2554199 0.01344525 76.84700189 0.46099204 81.57788086 1.12939453 C81.57788086 1.45939453 81.57788086 1.78939453 81.57788086 2.12939453 C76.14962919 3.20941973 70.78694317 3.4229771 65.27319336 3.62939453 C64.27641571 3.67 63.27963806 3.71060547 62.25265503 3.75244141 C59.06952743 3.88163611 55.88623213 4.00584421 52.70288086 4.12939453 C48.53872333 4.29375228 44.37467168 4.46055893 40.21069336 4.62939453 C39.20290833 4.66991943 38.19512329 4.71044434 37.15679932 4.75219727 C30.09932165 5.04415706 23.05644888 5.44317483 16.01098633 5.94580078 C13.45465121 6.08250708 10.95183593 6.14636807 8.39575195 6.13598633 C4.30117143 6.12891677 0.38465152 6.45397485 -3.67211914 6.94189453 C-4.77801392 7.07337891 -4.77801392 7.07337891 -5.90625 7.20751953 C-12.2286058 8.0100966 -18.28476705 9.41837516 -24.42211914 11.12939453 C-25.85879321 11.46626983 -27.29621405 11.79998878 -28.73461914 12.12939453 C-47.45699069 17.20664783 -63.09731888 28.77976965 -73.42211914 45.12939453 C-74.89088015 47.76317843 -76.17680354 50.37932258 -77.42211914 53.12939453 C-78.08211914 53.12939453 -78.74211914 53.12939453 -79.42211914 53.12939453 C-79.52524414 53.76876953 -79.62836914 54.40814453 -79.73461914 55.06689453 C-79.96149414 55.74751953 -80.18836914 56.42814453 -80.42211914 57.12939453 C-81.90711914 57.62439453 -81.90711914 57.62439453 -83.42211914 58.12939453 C-79.91479997 40.00824551 -71.03829914 25.83722227 -55.98461914 15.00439453 C-39.39538279 4.41686917 -19.51231365 -0.05471811 0 0 Z " fill="#7DD0E9" transform="translate(115.422119140625,56.87060546875)"/>
<path d="M0 0 C1.4283794 0.00163785 2.85676133 0.00169247 4.28514099 0.00030518 C8.08688533 0.002382 11.88797668 0.03075603 15.68954086 0.06606293 C18.06359137 0.08607843 20.43756301 0.09855671 22.81167603 0.10845947 C45.37680156 0.20314844 67.93080509 0.6115576 90.484375 1.3359375 C92.3644928 1.39433807 92.3644928 1.39433807 94.28259277 1.45391846 C97.83338427 1.56829904 101.38344731 1.69534233 104.93359375 1.828125 C105.95037704 1.8615802 106.96716034 1.8950354 108.01475525 1.92950439 C115.37690389 2.23186642 122.5369656 3.21862496 129.796875 4.4609375 C129.796875 4.7909375 129.796875 5.1209375 129.796875 5.4609375 C99.74164821 6.31113327 69.69103043 6.72834119 39.62542725 6.99316406 C33.86419571 7.04459715 28.10299845 7.09962837 22.34179688 7.15429688 C11.16018591 7.25989977 -0.02145558 7.36173077 -11.203125 7.4609375 C-11.203125 6.8009375 -11.203125 6.1409375 -11.203125 5.4609375 C-8.2734375 5.50976562 -8.2734375 5.50976562 -5.34375 5.55859375 C-3.25766599 5.55109028 -3.25766599 5.55109028 -1.55096436 4.96192932 C1.79222725 4.24854506 5.10142153 4.33052836 8.50292969 4.34741211 C9.27404587 4.34726608 10.04516205 4.34712006 10.83964539 4.3469696 C13.3827091 4.34766501 15.92569912 4.35544001 18.46875 4.36328125 C20.23423218 4.36514675 21.99971487 4.36657003 23.76519775 4.36756897 C28.40779046 4.37138375 33.0503518 4.38120518 37.69293213 4.39227295 C42.43200252 4.4025094 47.17107799 4.40707138 51.91015625 4.41210938 C61.20574294 4.42282837 70.50130636 4.43989233 79.796875 4.4609375 C79.796875 3.8009375 79.796875 3.1409375 79.796875 2.4609375 C69.18227225 2.43767328 58.56767566 2.41995107 47.95305252 2.40912533 C43.0232172 2.40392713 38.09339944 2.39688569 33.16357422 2.38549805 C28.39788391 2.37455958 23.63221039 2.36863764 18.86650848 2.36606026 C17.0566354 2.36422563 15.24676313 2.36064344 13.43689728 2.35520744 C-2.60336897 1.75820592 -2.60336897 1.75820592 -18.203125 4.4609375 C-19.66076125 4.69449698 -21.11920193 4.9230557 -22.578125 5.1484375 C-35.82541042 7.84410605 -46.90079088 14.93846295 -54.921875 25.78515625 C-56.20743851 27.96826258 -57.23524101 30.12056229 -58.203125 32.4609375 C-58.57953125 33.32460937 -58.9559375 34.18828125 -59.34375 35.078125 C-61.96557637 41.59576379 -62.90911898 47.48216298 -63.203125 54.4609375 C-63.29363459 56.3229477 -63.38484986 58.18492367 -63.4765625 60.046875 C-63.73953902 65.51740327 -63.97792252 70.98873445 -64.203125 76.4609375 C-64.533125 76.4609375 -64.863125 76.4609375 -65.203125 76.4609375 C-65.30371945 72.56909298 -65.37538341 68.67777496 -65.42285156 64.78491211 C-65.45231827 62.82703974 -65.50320258 60.86952651 -65.5546875 58.91210938 C-65.64488133 50.05056548 -64.30064573 42.75015964 -61.203125 34.4609375 C-60.89697266 33.61208984 -60.59082031 32.76324219 -60.27539062 31.88867188 C-59.60809367 30.0706443 -58.91016198 28.26388181 -58.203125 26.4609375 C-57.543125 26.4609375 -56.883125 26.4609375 -56.203125 26.4609375 C-55.97367188 25.74808594 -55.74421875 25.03523438 -55.5078125 24.30078125 C-51.03235877 14.55929962 -40.8335397 8.1495719 -31.203125 4.4609375 C-20.66378557 1.19777756 -11.05987245 -0.12130627 0 0 Z " fill="#59B1D5" transform="translate(128.203125,86.5390625)"/>
<path d="M0 0 C1.46771851 0.00966797 1.46771851 0.00966797 2.96508789 0.01953125 C13.40393158 0.12633103 23.82789247 0.60926296 34.25 1.1875 C33.92 1.8475 33.59 2.5075 33.25 3.1875 C32.32719238 3.22508423 32.32719238 3.22508423 31.38574219 3.26342773 C28.59029844 3.37968487 25.79516702 3.50227642 23 3.625 C22.03191406 3.66431641 21.06382812 3.70363281 20.06640625 3.74414062 C18.66455078 3.80698242 18.66455078 3.80698242 17.234375 3.87109375 C16.37553711 3.90775146 15.51669922 3.94440918 14.63183594 3.98217773 C12.39322137 4.17515384 10.41973794 4.63145456 8.25 5.1875 C6.33852537 5.27949611 4.42672267 5.36846834 2.51391602 5.42651367 C-10.70581016 5.86780652 -23.39427169 8.69679202 -33.5234375 17.77734375 C-37.6980112 22.28037376 -40.2264942 27.63802044 -42.75 33.1875 C-43.08 33.1875 -43.41 33.1875 -43.75 33.1875 C-44.26978585 25.04418829 -42.08487514 17.47991683 -36.75 11.1875 C-31.8643824 7.2016433 -26.97071107 3.61307962 -20.75 2.1875 C-20.05616211 2.02314453 -19.36232422 1.85878906 -18.64746094 1.68945312 C-12.35417129 0.29886788 -6.43168529 -0.08950767 0 0 Z " fill="#51B4D9" transform="translate(468.75,159.8125)"/>
<path d="M0 0 C1.22170898 0.00644531 2.44341797 0.01289063 3.70214844 0.01953125 C12.95087082 0.09772388 22.15607002 0.4499856 31.375 1.1875 C28.68937142 3.87312858 27.26574069 3.46626954 23.51171875 3.53125 C22.31353516 3.56089844 21.11535156 3.59054688 19.88085938 3.62109375 C18.62080078 3.64300781 17.36074219 3.66492188 16.0625 3.6875 C-2.34308315 4.01878101 -23.46450596 4.90923788 -37.6171875 18.03515625 C-41.99489422 22.60359293 -44.13712656 27.06596356 -45.625 33.1875 C-46.285 33.1875 -46.945 33.1875 -47.625 33.1875 C-48.41145047 25.00841514 -46.06229084 17.44791149 -40.86328125 11.00390625 C-29.8038211 0.5725696 -14.40591587 -0.15800292 0 0 Z " fill="#44A9D4" transform="translate(678.625,159.8125)"/>
<path d="M0 0 C1.20970459 0.00523682 2.41940918 0.01047363 3.66577148 0.01586914 C4.97094727 0.0190918 6.27612305 0.02231445 7.62084961 0.02563477 C9.00952213 0.03399138 10.39819401 0.04245634 11.78686523 0.05102539 C13.17944179 0.05603873 14.57202005 0.06060193 15.96459961 0.06469727 C19.38456394 0.07653105 22.80444367 0.09301659 26.22436523 0.11352539 C25.89436523 0.77352539 25.56436523 1.43352539 25.22436523 2.11352539 C12.35436523 1.61852539 12.35436523 1.61852539 -0.77563477 1.11352539 C-0.05747598 16.36037227 -0.05747598 16.36037227 1.04077148 31.58227539 C1.57635124 41.88363913 1.00180358 52.0839225 0.28686523 62.36352539 C0.19417034 63.73792816 0.10188772 65.11235879 0.01000977 66.48681641 C-0.16900599 69.16019379 -0.349924 71.8334171 -0.53198242 74.5065918 C-0.83690138 79.02049233 -1.1230857 83.53537165 -1.40063477 88.05102539 C-1.47540039 89.25629883 -1.55016602 90.46157227 -1.62719727 91.70336914 C-1.67618164 92.4987207 -1.72516602 93.29407227 -1.77563477 94.11352539 C-2.10563477 94.11352539 -2.43563477 94.11352539 -2.77563477 94.11352539 C-4.00800787 76.57817553 -3.93026766 59.03872965 -3.90600586 41.47070312 C-3.90022024 37.21826995 -3.90365756 32.96589868 -3.90957832 28.7134676 C-3.91317548 25.42194644 -3.91205081 22.13044027 -3.90945053 18.83891869 C-3.90878347 17.26836324 -3.909602 15.69780644 -3.91193008 14.12725258 C-3.91445213 11.95507747 -3.91062659 9.78300708 -3.9050293 7.61083984 C-3.9042337 6.37654739 -3.90343811 5.14225494 -3.90261841 3.87055969 C-3.73140715 0.15326748 -3.72116029 0.15219804 0 0 Z " fill="#50B7DD" transform="translate(811.775634765625,105.886474609375)"/>
<path d="M0 0 C4.37823917 -0.04938149 8.75633146 -0.0857104 13.13476562 -0.10986328 C14.6247032 -0.11993043 16.11462097 -0.13358518 17.60449219 -0.15087891 C19.74419028 -0.17509653 21.88362753 -0.18647564 24.0234375 -0.1953125 C25.31169434 -0.20578613 26.59995117 -0.21625977 27.92724609 -0.22705078 C31 0 31 0 33 2 C30.41591126 4.54433353 29.14993653 4.99205634 25.4609375 5.1875 C24.09857722 5.13394653 22.73656162 5.07101727 21.375 5 C11.69298676 4.80033712 5.18284301 5.76016718 -2.3125 12.375 C-3.89143592 13.89982908 -5.45620388 15.43960392 -7 17 C-7.886875 17.86625 -8.77375 18.7325 -9.6875 19.625 C-10.450625 20.40875 -11.21375 21.1925 -12 22 C-13.2694935 23.27217176 -14.54040027 24.54293433 -15.8125 25.8125 C-16.41707031 26.41707031 -17.02164063 27.02164063 -17.64453125 27.64453125 C-18.09183594 28.09183594 -18.53914062 28.53914063 -19 29 C-19.99 28.34 -20.98 27.68 -22 27 C-21.5875 26.649375 -21.175 26.29875 -20.75 25.9375 C-18.76255175 23.73711087 -17.51437517 21.32645864 -16.08203125 18.74609375 C-14.43482215 16.08796209 -12.25786135 14.15751195 -10 12 C-8.40464154 10.28192166 -6.82227875 8.55172435 -5.25 6.8125 C-4.47140625 5.95269531 -3.6928125 5.09289062 -2.890625 4.20703125 C-0.97415522 2.15018771 -0.97415522 2.15018771 0 0 Z " fill="#2B93C7" transform="translate(920,160)"/>
<path d="M0 0 C12.88463542 -0.04672953 25.76925005 -0.08207256 38.65395355 -0.10362434 C44.63945042 -0.11397791 50.62488851 -0.1279793 56.61035156 -0.15087891 C62.40703391 -0.17291268 68.20366041 -0.1846316 74.00038147 -0.18975449 C76.19109474 -0.19339633 78.38180561 -0.20050403 80.57249451 -0.21146011 C95.81704653 -0.28453691 110.82907278 0.48869181 126 2 C126 2.33 126 2.66 126 3 C111.53372604 5.47332016 97.13265935 5.22877773 82.5 5.125 C80.01953488 5.11494713 77.53906579 5.10582537 75.05859375 5.09765625 C69.03897479 5.07583264 63.01950638 5.04253898 57 5 C57 4.67 57 4.34 57 4 C62.94 3.67 68.88 3.34 75 3 C72.04501993 1.52250997 69.36996231 1.83434663 66.07177734 1.79467773 C65.35947464 1.78477814 64.64717194 1.77487854 63.9132843 1.76467896 C61.55420274 1.73304142 59.19510103 1.7082977 56.8359375 1.68359375 C55.20211253 1.66302616 53.56829292 1.64202974 51.93447876 1.62062073 C47.63057784 1.56537987 43.32662874 1.5159795 39.02264404 1.46777344 C34.63223982 1.4175731 30.24190571 1.36187939 25.8515625 1.30664062 C17.23443425 1.19903442 8.61724742 1.09759494 0 1 C0 0.67 0 0.34 0 0 Z " fill="#2483C0" transform="translate(116,56)"/>
<path d="M0 0 C7.68656342 -0.02352164 15.37311788 -0.04111234 23.0597086 -0.05181217 C26.63169722 -0.05695625 30.20366064 -0.06389246 33.77563477 -0.07543945 C50.87543354 -0.12929623 67.92024465 0.04939807 85 1 C85 1.66 85 2.32 85 3 C71.04150121 3.75076306 57.11400691 4.18528258 43.13671875 4.31640625 C41.23858784 4.33706215 39.34046062 4.35806024 37.44233704 4.37937927 C32.52549296 4.43371115 27.60861381 4.48349951 22.69171143 4.53222656 C17.64275108 4.58310493 12.59383959 4.63843915 7.54492188 4.69335938 C-2.30334337 4.79984795 -12.15165163 4.90151988 -22 5 C-22 4.67 -22 4.34 -22 4 C-14.15408615 2.9840438 -6.34123065 2.68411257 1.5625 2.4375 C2.85736328 2.39431641 4.15222656 2.35113281 5.48632812 2.30664062 C8.65745063 2.20132659 11.82871291 2.1002357 15 2 C10.05 1.67 5.1 1.34 0 1 C0 0.67 0 0.34 0 0 Z " fill="#2184BE" transform="translate(693,160)"/>
<path d="M0 0 C10.0662929 -0.04638263 20.13256029 -0.08189935 30.19893837 -0.10362434 C34.87338669 -0.11405232 39.54776179 -0.12819357 44.22216797 -0.15087891 C48.73496595 -0.17264237 53.24769359 -0.18457604 57.76054001 -0.18975449 C59.48048383 -0.19344395 61.20042388 -0.20064854 62.92033768 -0.21146011 C65.33320627 -0.22602163 67.7457858 -0.227976 70.15869141 -0.22705078 C70.86647736 -0.23424133 71.57426331 -0.24143188 72.30349731 -0.24884033 C76.57483054 -0.23116933 80.02723003 0.43963295 84 2 C83.67 2.66 83.34 3.32 83 4 C55.61 4 28.22 4 0 4 C0 3.67 0 3.34 0 3 C10.395 2.505 10.395 2.505 21 2 C14.07 1.67 7.14 1.34 0 1 C0 0.67 0 0.34 0 0 Z " fill="#2083BF" transform="translate(481,160)"/>
<path d="M0 0 C2.62672061 -0.45218208 4.42598474 -0.33173505 6.75146484 1.01220703 C8.77445467 2.47875676 10.73516279 4.00312228 12.6875 5.5625 C14.11378565 6.666396 15.54086793 7.76926349 16.96875 8.87109375 C17.65839844 9.40847168 18.34804687 9.94584961 19.05859375 10.49951172 C21.56100285 12.43359199 24.10797645 14.2952476 26.6875 16.125 C27.41324219 16.64320313 28.13898438 17.16140625 28.88671875 17.6953125 C31.18410262 19.1136604 33.49144858 20.00968093 36 21 C37.68589258 21.94568037 39.35276078 22.92599217 41 23.9375 C41.825 24.44152344 42.65 24.94554687 43.5 25.46484375 C44.325 25.97144531 45.15 26.47804687 46 27 C46.86625 27.51691406 47.7325 28.03382813 48.625 28.56640625 C50.4451472 29.66508063 52.23103266 30.82068844 54 32 C51.525 32.495 51.525 32.495 49 33 C49.33 33.66 49.66 34.32 50 35 C46.16265379 34.44036065 43.70759233 33.40490617 40.54296875 31.18359375 C39.68848145 30.5913501 38.83399414 29.99910645 37.95361328 29.38891602 C36.58438721 28.42296509 36.58438721 28.42296509 35.1875 27.4375 C33.23136713 26.07943424 31.27429983 24.72271365 29.31640625 23.3671875 C28.29305176 22.6565918 27.26969727 21.94599609 26.21533203 21.21386719 C20.72659534 17.43468235 15.17571275 13.7497919 9.625 10.0625 C8.56692139 9.35859131 7.50884277 8.65468262 6.41870117 7.92944336 C3.94651477 6.28521682 1.47364129 4.64203657 -1 3 C-0.67 2.01 -0.34 1.02 0 0 Z " fill="#164F95" transform="translate(107,144)"/>
<path d="M0 0 C1.54586865 0.00494899 3.09174342 0.00823144 4.63761902 0.00996399 C7.85211901 0.01752881 11.06616172 0.03784217 14.28051758 0.0690918 C18.34133014 0.10856445 22.40184969 0.1266267 26.4628315 0.13651848 C42.44427295 0.17669824 58.40762829 0.27691033 74.35546875 1.42578125 C74.35546875 1.75578125 74.35546875 2.08578125 74.35546875 2.42578125 C73.39239807 2.42356064 72.42932739 2.42134003 71.43707275 2.41905212 C62.31680349 2.39869264 53.1965389 2.38374779 44.07625198 2.37396908 C39.38855281 2.3687726 34.70087213 2.36173438 30.01318359 2.3503418 C25.48091197 2.33939711 20.94865803 2.33348011 16.41637421 2.33090401 C14.69581576 2.32907048 12.97525817 2.32549051 11.25470734 2.32005119 C-4.412591 1.75887057 -4.412591 1.75887057 -19.64453125 4.42578125 C-21.1021675 4.65934073 -22.56060818 4.88789945 -24.01953125 5.11328125 C-37.26681667 7.8089498 -48.34219713 14.9033067 -56.36328125 25.75 C-57.64884476 27.93310633 -58.67664726 30.08540604 -59.64453125 32.42578125 C-60.0209375 33.28945312 -60.39734375 34.153125 -60.78515625 35.04296875 C-63.40698262 41.56060754 -64.35052523 47.44700673 -64.64453125 54.42578125 C-64.73504084 56.28779145 -64.82625611 58.14976742 -64.91796875 60.01171875 C-65.18094527 65.48224702 -65.41932877 70.9535782 -65.64453125 76.42578125 C-65.97453125 76.42578125 -66.30453125 76.42578125 -66.64453125 76.42578125 C-66.7451257 72.53393673 -66.81678966 68.64261871 -66.86425781 64.74975586 C-66.89372452 62.79188349 -66.94460883 60.83437026 -66.99609375 58.87695312 C-67.08628758 50.01540923 -65.74205198 42.71500339 -62.64453125 34.42578125 C-62.33837891 33.57693359 -62.03222656 32.72808594 -61.71679688 31.85351562 C-61.04949992 30.03548805 -60.35156823 28.22872556 -59.64453125 26.42578125 C-58.98453125 26.42578125 -58.32453125 26.42578125 -57.64453125 26.42578125 C-57.41507813 25.71292969 -57.185625 25.00007813 -56.94921875 24.265625 C-52.47183715 14.51994708 -42.2753043 8.12097987 -32.64453125 4.42578125 C-21.59049591 0.95028023 -11.51160794 -0.14499781 0 0 Z " fill="#5BB5DA" transform="translate(129.64453125,86.57421875)"/>
<path d="M0 0 C0.66 0.33 1.32 0.66 2 1 C0.94838679 6.3094478 -1.11015562 8.2870464 -5.38334656 11.18649292 C-6.11664688 11.65862213 -6.8499472 12.13075134 -7.60546875 12.6171875 C-8.36289871 13.11920685 -9.12032867 13.6212262 -9.90071106 14.13845825 C-11.50185961 15.19344855 -13.10843607 16.24024089 -14.7199707 17.27929688 C-17.17689521 18.86814209 -19.60920407 20.49023839 -22.04101562 22.1171875 C-23.6028058 23.14010163 -25.16591604 24.1610037 -26.73046875 25.1796875 C-27.45364792 25.6639621 -28.17682709 26.14823669 -28.92192078 26.64718628 C-33.55229571 29.59137785 -36.50975777 30.554461 -42 30 C-42.12375 29.38125 -42.2475 28.7625 -42.375 28.125 C-42.87197356 25.80879168 -42.87197356 25.80879168 -45 24 C-44.67 23.34 -44.34 22.68 -44 22 C-43.40574219 22.06960937 -42.81148437 22.13921875 -42.19921875 22.2109375 C-34.35469274 22.72333267 -29.49564022 20.17713737 -23 16 C-22.24976563 15.52046875 -21.49953125 15.0409375 -20.7265625 14.546875 C-18.46368266 13.06007309 -16.23371323 11.53023861 -14 10 C-10.83620186 7.909074 -7.67045035 5.82113969 -4.50390625 3.734375 C-1.97144481 2.09054216 -1.97144481 2.09054216 0 0 Z " fill="#114892" transform="translate(276,153)"/>
<path d="M0 0 C6.40461371 -0.02546371 12.80921424 -0.0429145 19.21386719 -0.05493164 C21.39030444 -0.05994424 23.56673836 -0.06675603 25.74316406 -0.07543945 C28.88086779 -0.08764004 32.01852679 -0.09325918 35.15625 -0.09765625 C36.60360535 -0.10539818 36.60360535 -0.10539818 38.0802002 -0.11329651 C43.48343812 -0.11373994 48.65405832 0.20525867 54 1 C54 1.33 54 1.66 54 2 C48.57174833 3.0800252 43.20906231 3.29358256 37.6953125 3.5 C36.69853485 3.54060547 35.7017572 3.58121094 34.67477417 3.62304688 C31.49164657 3.75224158 28.30835127 3.87644968 25.125 4 C20.96084237 4.16435775 16.79680148 4.33142749 12.6328125 4.5 C11.12657318 4.55969971 11.12657318 4.55969971 9.58990479 4.62060547 C2.36277248 4.91628719 -4.84376875 5.35593033 -12.05517578 5.9140625 C-15 6 -15 6 -18 5 C-15.93440423 2.93440423 -11.67067329 3.62829706 -8.8125 3.5 C-3.7977342 3.26914122 1.05553411 2.94630926 6 2 C3.03 1.505 3.03 1.505 0 1 C0 0.67 0 0.34 0 0 Z " fill="#5ABDDF" transform="translate(143,57)"/>
<path d="M0 0 C0.99 0.33 1.98 0.66 3 1 C2.67 1.33 2.34 1.66 2 2 C2.0670269 4.16923416 2.20680993 6.33625751 2.375 8.5 C2.42172852 9.1801416 2.46845703 9.8602832 2.51660156 10.56103516 C2.74896768 13.92418843 3.02923959 17.26544963 3.3984375 20.6171875 C4.84596053 36.08960034 2.6247778 51.6061496 1 67 C0.67 67 0.34 67 0 67 C-0.91003451 56.82481915 -1.15669473 46.74097983 -1.13037109 36.5324707 C-1.12501437 34.06911039 -1.13035033 31.60593293 -1.13671875 29.14257812 C-1.14037739 19.38462759 -0.79853656 9.72704843 0 0 Z " fill="#48B2DA" transform="translate(1049,107)"/>
<path d="M0 0 C1.22170898 0.00644531 2.44341797 0.01289063 3.70214844 0.01953125 C12.95087082 0.09772388 22.15607002 0.4499856 31.375 1.1875 C28.70528193 3.85721807 27.31360361 3.47878685 23.58203125 3.56640625 C22.4002832 3.60000244 21.21853516 3.63359863 20.00097656 3.66821289 C18.7425293 3.69520264 17.48408203 3.72219238 16.1875 3.75 C13.63666972 3.82118068 11.0858869 3.89408411 8.53515625 3.96875 C6.68688232 4.02095703 6.68688232 4.02095703 4.80126953 4.07421875 C-1.35355878 4.27771314 -7.48691151 4.69687048 -13.625 5.1875 C-13.625 4.8575 -13.625 4.5275 -13.625 4.1875 C-17.255 4.1875 -20.885 4.1875 -24.625 4.1875 C-24.625 3.5275 -24.625 2.8675 -24.625 2.1875 C-16.35015354 0.33734748 -8.46144774 -0.09280447 0 0 Z " fill="#51B7DC" transform="translate(678.625,159.8125)"/>
<path d="M0 0 C0.66 0 1.32 0 2 0 C3.58441839 3.16883679 3.14180457 6.57966817 3.1328125 10.05859375 C3.13376923 10.87634781 3.13472595 11.69410187 3.13571167 12.53663635 C3.13639398 14.28101681 3.13453619 16.02539978 3.13037109 17.76977539 C3.1251398 20.36806418 3.13025227 22.96617061 3.13671875 25.56445312 C3.14083473 37.07232891 2.71703388 48.51520794 2 60 C1.67 60 1.34 60 1 60 C0.26811906 56.06873698 -0.12290765 52.35865731 -0.11352539 48.36181641 C-0.11344986 47.28114899 -0.11337433 46.20048157 -0.11329651 45.08706665 C-0.10813522 43.93685028 -0.10297394 42.78663391 -0.09765625 41.6015625 C-0.0962413 40.41146576 -0.09482635 39.22136902 -0.09336853 37.99520874 C-0.0877842 34.20511328 -0.07523451 30.41507752 -0.0625 26.625 C-0.05748298 24.0507821 -0.05292042 21.47656328 -0.04882812 18.90234375 C-0.03781989 12.60154223 -0.02109731 6.30077538 0 0 Z " fill="#64C8E0" transform="translate(362,126)"/>
<path d="M0 0 C0.86140091 0.00424484 1.72280182 0.00848969 2.61030579 0.01286316 C5.36161556 0.02965627 8.11219287 0.06730919 10.86328125 0.10546875 C12.72850505 0.12051479 14.59374032 0.13420334 16.45898438 0.14648438 C21.03153223 0.17956182 25.60353255 0.23134815 30.17578125 0.29296875 C30.17578125 0.62296875 30.17578125 0.95296875 30.17578125 1.29296875 C17.63578125 1.29296875 5.09578125 1.29296875 -7.82421875 1.29296875 C-8.81266308 4.25830175 -8.97106543 6.27448517 -9.01367188 9.37182617 C-9.0303894 10.4068779 -9.04710693 11.44192963 -9.06433105 12.50834656 C-9.07790649 13.62707657 -9.09148193 14.74580658 -9.10546875 15.8984375 C-9.13308289 17.62819572 -9.13308289 17.62819572 -9.16125488 19.39289856 C-9.22006834 23.08870284 -9.27281655 26.78455442 -9.32421875 30.48046875 C-9.39212594 35.328217 -9.46590043 40.17582728 -9.54296875 45.0234375 C-9.55654419 46.13204636 -9.57011963 47.24065521 -9.58410645 48.38285828 C-9.67507755 54.10102256 -9.9800178 59.63519895 -10.82421875 65.29296875 C-11.15421875 65.29296875 -11.48421875 65.29296875 -11.82421875 65.29296875 C-11.89370193 57.26101833 -11.94702114 49.2291933 -11.97965527 41.19701672 C-11.99531734 37.4674182 -12.01656504 33.73802517 -12.05053711 30.00854492 C-12.08311194 26.40997101 -12.10106769 22.81159486 -12.10885048 19.2128849 C-12.11439743 17.83932697 -12.12522927 16.46577997 -12.14140892 15.09230614 C-12.16315551 13.16996168 -12.16444392 11.2474186 -12.16479492 9.32495117 C-12.17145676 8.23018967 -12.17811859 7.13542816 -12.1849823 6.00749207 C-11.82421875 3.29296875 -11.82421875 3.29296875 -10.54797363 1.43725586 C-7.42249359 -0.63754408 -3.62689562 -0.06704723 0 0 Z " fill="#74A2CA" transform="translate(1052.82421875,98.70703125)"/>
<path d="M0 0 C0.66 0.33 1.32 0.66 2 1 C0.76368835 5.8604856 -0.51734834 7.92574587 -4.71875 10.6484375 C-5.65074219 11.26074219 -6.58273437 11.87304688 -7.54296875 12.50390625 C-8.51878906 13.12136719 -9.49460937 13.73882812 -10.5 14.375 C-11.47582031 15.01566406 -12.45164062 15.65632812 -13.45703125 16.31640625 C-20.67715552 21 -20.67715552 21 -23 21 C-23.33 20.01 -23.66 19.02 -24 18 C-20.07240238 13.70274614 -15.8597072 10.84403325 -10.875 7.875 C-9.45342621 7.02205573 -8.03406635 6.1654083 -6.6171875 5.3046875 C-5.99440918 4.93327637 -5.37163086 4.56186523 -4.72998047 4.17919922 C-2.92472775 2.9486925 -1.49305771 1.58919941 0 0 Z " fill="#144993" transform="translate(276,153)"/>
<path d="M0 0 C1.21236328 0.01353516 1.21236328 0.01353516 2.44921875 0.02734375 C3.37154297 0.04474609 3.37154297 0.04474609 4.3125 0.0625 C2.83719155 4.04498004 0.88138011 5.07711876 -2.875 6.875 C-7.55912964 9.28169473 -10.92352874 11.84968966 -14.4453125 15.7421875 C-14.85523438 16.17789063 -15.26515625 16.61359375 -15.6875 17.0625 C-16.0175 17.0625 -16.3475 17.0625 -16.6875 17.0625 C-17.19407287 11.74348483 -16.01360043 9.19765188 -12.6875 5.0625 C-8.51953841 1.30116881 -5.58949989 -0.08100724 0 0 Z " fill="#2790C5" transform="translate(195.6875,177.9375)"/>
<path d="M0 0 C1.23865768 3.71597303 0.57475211 4.68863101 -0.75 8.3125 C-3.8897518 17.95990347 -4.80452074 27.96226468 -6 38 C-6.19284759 39.55613413 -6.38674029 41.11213937 -6.58203125 42.66796875 C-6.71996094 43.76753906 -6.85789062 44.86710937 -7 46 C-7.33 46 -7.66 46 -8 46 C-8.61916858 15.66709003 -8.61916858 15.66709003 -5 3 C-3.35 2.67 -1.7 2.34 0 2 C0 1.34 0 0.68 0 0 Z " fill="#1E7FBC" transform="translate(35,112)"/>
<path d="M0 0 C38.64564506 -0.20638953 38.64564506 -0.20638953 57 1 C56.67 1.66 56.34 2.32 56 3 C42.47 3 28.94 3 15 3 C15 2.67 15 2.34 15 2 C10.05 1.67 5.1 1.34 0 1 C0 0.67 0 0.34 0 0 Z " fill="#2F98CA" transform="translate(693,160)"/>
<path d="M0 0 C16.5 0 33 0 50 0 C50 0.33 50 0.66 50 1 C49.28714844 1.04898438 48.57429687 1.09796875 47.83984375 1.1484375 C46.88207031 1.22320312 45.92429687 1.29796875 44.9375 1.375 C43.99777344 1.44460937 43.05804687 1.51421875 42.08984375 1.5859375 C38.93897484 1.91824743 38.93897484 1.91824743 35.78710938 3.01367188 C31.7907894 4.05448755 28.43852815 4.22842191 24.31640625 4.1953125 C23.26585304 4.19106766 23.26585304 4.19106766 22.19407654 4.18673706 C19.9833683 4.17564885 17.77308329 4.15056703 15.5625 4.125 C14.05274028 4.11495546 12.54297412 4.1058322 11.03320312 4.09765625 C7.35533403 4.07574714 3.6777084 4.04129758 0 4 C0 3.67 0 3.34 0 3 C10.395 2.505 10.395 2.505 21 2 C14.07 1.67 7.14 1.34 0 1 C0 0.67 0 0.34 0 0 Z " fill="#2B92C7" transform="translate(481,160)"/>
<path d="M0 0 C0.99 0.33 1.98 0.66 3 1 C3 7.6 3 14.2 3 21 C2.67 20.34 2.34 19.68 2 19 C1.34 19 0.68 19 0 19 C0 36.16 0 53.32 0 71 C-0.33 71 -0.66 71 -1 71 C-1.02322608 62.7763349 -1.04096727 54.55268364 -1.05181217 46.3289938 C-1.0570186 42.50992609 -1.06407535 38.69088091 -1.07543945 34.87182617 C-1.08634821 31.18247826 -1.0922937 27.49315194 -1.09487724 23.80378914 C-1.09671714 22.40007246 -1.10030989 20.99635688 -1.10573006 19.59264946 C-1.11304655 17.6183374 -1.11340896 15.64400335 -1.11352539 13.66967773 C-1.115746 12.54826889 -1.11796661 11.42686005 -1.12025452 10.27146912 C-0.99227378 6.78981162 -0.54967698 3.43825905 0 0 Z " fill="#1F82BF" transform="translate(362,107)"/>
<path d="M0 0 C0.33 0 0.66 0 1 0 C0.67 2.97 0.34 5.94 0 9 C-0.66 9 -1.32 9 -2 9 C-2 36.39 -2 63.78 -2 92 C-2.33 92 -2.66 92 -3 92 C-3.84221941 87.60639111 -4.13123485 83.44676198 -4.14526367 78.97583008 C-4.14862228 78.30011963 -4.1519809 77.62440918 -4.15544128 76.92822266 C-4.1648888 74.7086398 -4.16689154 72.48913293 -4.16796875 70.26953125 C-4.17118663 68.71262075 -4.17455109 67.15571054 -4.17805481 65.59880066 C-4.18403132 62.33823955 -4.18589633 59.07770487 -4.18530273 55.81713867 C-4.18520143 51.66612934 -4.19882782 47.51529226 -4.21607494 43.36432362 C-4.22726921 40.14785505 -4.22921964 36.93142707 -4.22869301 33.71494102 C-4.22986296 32.18613786 -4.2342285 30.6573333 -4.24202538 29.12854958 C-4.33989297 7.94988806 -4.33989297 7.94988806 0 0 Z " fill="#88A8CB" transform="translate(627,177)"/>
<path d="M0 0 C36.84759252 -0.45058197 36.84759252 -0.45058197 54 3 C54 3.33 54 3.66 54 4 C26.55907212 4.38599011 26.55907212 4.38599011 16.03125 2.51171875 C10.72716246 1.61631222 5.36400632 1.33859176 0 1 C0 0.67 0 0.34 0 0 Z " fill="#2D8BC2" transform="translate(204,88)"/>
<path d="M0 0 C3.2234798 4.29797307 3.37168096 5.09129545 3.328125 10.1640625 C3.32296875 11.36933594 3.3178125 12.57460937 3.3125 13.81640625 C3.291875 15.07324219 3.27125 16.33007812 3.25 17.625 C3.24226563 19.47544922 3.24226563 19.47544922 3.234375 21.36328125 C3.06800978 40.93199022 3.06800978 40.93199022 0 44 C0 29.48 0 14.96 0 0 Z " fill="#1672B6" transform="translate(1048,160)"/>
<path d="M0 0 C0.66 0 1.32 0 2 0 C2 14.19 2 28.38 2 43 C1.34 43 0.68 43 0 43 C-1.20956945 38.26731952 -1.15101835 33.66120477 -1.125 28.8125 C-1.12306641 27.94206055 -1.12113281 27.07162109 -1.11914062 26.17480469 C-1.06225746 17.43059749 -0.58992033 8.72239345 0 0 Z " fill="#5375AB" transform="translate(325,54)"/>
<path d="M0 0 C0.33 0 0.66 0 1 0 C1.02470696 5.35684878 1.04286331 10.71366444 1.05493164 16.07055664 C1.0599624 17.89315366 1.06678769 19.71574665 1.07543945 21.53833008 C1.08755997 24.15707394 1.09324086 26.77576447 1.09765625 29.39453125 C1.10281754 30.21025101 1.10797882 31.02597076 1.11329651 31.8664093 C1.1136246 35.17013929 1.05225621 37.84323138 0 41 C-0.66 41 -1.32 41 -2 41 C-2 42.98 -2 44.96 -2 47 C-2.33 47 -2.66 47 -3 47 C-3 40.07 -3 33.14 -3 26 C-2.67 26 -2.34 26 -2 26 C-1.34 17.42 -0.68 8.84 0 0 Z " fill="#2181BE" transform="translate(365,154)"/>
<path d="M0 0 C9.41213252 -0.12873737 18.62087413 0.20177652 28 1 C19.40658761 5.85886322 7.33709972 4.12431717 -2.1875 4.0625 C-3.53450352 4.05746963 -4.88150889 4.05290947 -6.22851562 4.04882812 C-9.48572537 4.03715354 -12.74283778 4.02077883 -16 4 C-16 3.67 -16 3.34 -16 3 C-10.06 2.67 -4.12 2.34 2 2 C1.34 1.34 0.68 0.68 0 0 Z " fill="#3DA1D0" transform="translate(189,57)"/>
<path d="M0 0 C1.20970459 0.00523682 2.41940918 0.01047363 3.66577148 0.01586914 C4.97094727 0.0190918 6.27612305 0.02231445 7.62084961 0.02563477 C9.00952213 0.03399138 10.39819401 0.04245634 11.78686523 0.05102539 C13.17944179 0.05603873 14.57202005 0.06060193 15.96459961 0.06469727 C19.38456394 0.07653105 22.80444367 0.09301659 26.22436523 0.11352539 C25.89436523 0.77352539 25.56436523 1.43352539 25.22436523 2.11352539 C12.35436523 1.61852539 12.35436523 1.61852539 -0.77563477 1.11352539 C-0.65722141 6.57357407 -0.65722141 6.57357407 -0.50537109 12.03271484 C-0.49787842 12.71551514 -0.49038574 13.39831543 -0.48266602 14.10180664 C-0.46695557 14.79830322 -0.45124512 15.4947998 -0.43505859 16.21240234 C-0.87325034 18.65842322 -1.91000835 19.54054625 -3.77563477 21.11352539 C-3.80451623 17.80104352 -3.82239276 14.48859372 -3.83813477 11.17602539 C-3.84651367 10.23049805 -3.85489258 9.2849707 -3.86352539 8.31079102 C-3.86674805 7.41166992 -3.8699707 6.51254883 -3.87329102 5.58618164 C-3.87852783 4.75352783 -3.88376465 3.92087402 -3.88916016 3.06298828 C-3.70702924 -0.06457171 -3.16457297 0.12943323 0 0 Z " fill="#258BC5" transform="translate(811.775634765625,105.886474609375)"/>
<path d="M0 0 C0 0.66 0 1.32 0 2 C-12.87 2 -25.74 2 -39 2 C-39 1.34 -39 0.68 -39 0 C-34.73188184 -0.169023 -30.46354806 -0.32941546 -26.19482422 -0.48217773 C-24.74584456 -0.53520491 -23.29694581 -0.59049773 -21.84814453 -0.64819336 C-7.02843217 -1.23546659 -7.02843217 -1.23546659 0 0 Z " fill="#607BAC" transform="translate(843,298)"/>
<path d="M0 0 C1.12138618 0.03541649 1.12138618 0.03541649 2.26542664 0.07154846 C4.63940449 0.14776195 7.01302068 0.2319664 9.38671875 0.31640625 C11.00193577 0.3696694 12.61717014 0.42240947 14.23242188 0.47460938 C18.17991397 0.60331929 22.12710137 0.73919369 26.07421875 0.87890625 C26.07421875 1.53890625 26.07421875 2.19890625 26.07421875 2.87890625 C13.20421875 2.87890625 0.33421875 2.87890625 -12.92578125 2.87890625 C-12.92578125 2.21890625 -12.92578125 1.55890625 -12.92578125 0.87890625 C-8.58461186 -0.22026452 -4.43775693 -0.16711896 0 0 Z " fill="#617AAB" transform="translate(370.92578125,297.12109375)"/>
<path d="M0 0 C0.71736328 0.00644531 1.43472656 0.01289062 2.17382812 0.01953125 C6.96378752 0.08914011 11.59142603 0.40065434 16.3125 1.1875 C16.3125 1.5175 16.3125 1.8475 16.3125 2.1875 C11.57375456 3.07415206 6.8697262 3.49413998 2.0625 3.75 C1.2905127 3.7924585 0.51852539 3.83491699 -0.27685547 3.87866211 C-8.74682387 4.30361409 -17.20965831 4.27768981 -25.6875 4.1875 C-25.6875 3.8575 -25.6875 3.5275 -25.6875 3.1875 C-24.63949219 3.13851562 -23.59148437 3.08953125 -22.51171875 3.0390625 C-21.13278646 2.96401857 -19.7538815 2.88847143 -18.375 2.8125 C-17.68470703 2.7815625 -16.99441406 2.750625 -16.28320312 2.71875 C-10.33969113 2.37419858 -6.1260614 -0.11189153 0 0 Z " fill="#4EB2D9" transform="translate(180.6875,56.8125)"/>
<path d="M0 0 C3.16244867 3.41906118 3.37528104 5.85880007 3.36328125 10.4453125 C3.36263672 11.68667969 3.36199219 12.92804688 3.36132812 14.20703125 C3.34521484 15.49996094 3.32910156 16.79289062 3.3125 18.125 C3.31572266 19.42566406 3.31894531 20.72632813 3.32226562 22.06640625 C3.26694139 31.73305861 3.26694139 31.73305861 1 34 C-0.17942085 30.46173745 -0.11289189 27.65851274 -0.09765625 23.92578125 C-0.0962413 23.2419487 -0.09482635 22.55811615 -0.09336853 21.8535614 C-0.08777876 19.67316278 -0.07522822 17.49286749 -0.0625 15.3125 C-0.05748367 13.83268378 -0.052921 12.35286594 -0.04882812 10.87304688 C-0.03781271 7.24866443 -0.02055512 3.6243423 0 0 Z " fill="#146FB4" transform="translate(808,180)"/>
<path d="M0 0 C0.66 0 1.32 0 2 0 C1.67 3.96 1.34 7.92 1 12 C1.66 10.35 2.32 8.7 3 7 C4.1605166 10.48154979 3.49788833 12.22258795 2.5390625 15.66796875 C1.75699727 19.05125095 1.55797986 22.43862524 1.34375 25.8984375 C1 28 1 28 -1 30 C-2.53898512 19.61185046 -1.98540818 10.31703177 0 0 Z " fill="#1976B9" transform="translate(425,180)"/>
<path d="M0 0 C0.66 0 1.32 0 2 0 C3.66577625 3.33155251 3.12007856 7.06536059 3.09765625 10.7265625 C3.0962413 11.58937836 3.09482635 12.45219421 3.09336853 13.34115601 C3.08776188 16.1024723 3.07520827 18.86370812 3.0625 21.625 C3.05748586 23.4947905 3.0529228 25.36458226 3.04882812 27.234375 C3.03779029 31.82294777 3.0205212 36.41146023 3 41 C2.67 41 2.34 41 2 41 C1.67 32.42 1.34 23.84 1 15 C0.67 15 0.34 15 0 15 C0 10.05 0 5.1 0 0 Z " fill="#51BBDE" transform="translate(362,126)"/>
<path d="M0 0 C0.66 0 1.32 0 2 0 C2 8.91 2 17.82 2 27 C1.34 27 0.68 27 0 27 C-1.3564524 17.8439463 -1.18319529 9.16976353 0 0 Z " fill="#4970AA" transform="translate(784,271)"/>
<path d="M0 0 C0.99 0.33 1.98 0.66 3 1 C1.54744301 4.82946843 -0.42895561 6.12050295 -4 8 C-4.33 7.67 -4.66 7.34 -5 7 C-5.515625 7.639375 -6.03125 8.27875 -6.5625 8.9375 C-9.65935623 11.55791681 -12.02067623 11.69389817 -16 12 C-12.9296552 8.72249941 -9.6521112 6.20533436 -5.9375 3.6875 C-4.89464844 2.96949219 -3.85179687 2.25148437 -2.77734375 1.51171875 C-1.86082031 1.01285156 -0.94429688 0.51398438 0 0 Z " fill="#2E7CB8" transform="translate(262,147)"/>
<path d="M0 0 C0.66 0.33 1.32 0.66 2 1 C1.01 2.485 1.01 2.485 0 4 C-0.07905064 6.33199388 -0.08798769 8.66832622 0 11 C-0.99 10.67 -1.98 10.34 -3 10 C-2.34 11.65 -1.68 13.3 -1 15 C-4 15 -4 15 -5.75 13.4375 C-7.58961036 9.85025979 -7.15739574 7.81259774 -6 4 C-2.9375 1.5625 -2.9375 1.5625 0 0 Z " fill="#1C63A9" transform="translate(235,165)"/>
<path d="M0 0 C1.35814777 4.0744433 -0.05254238 6.81468116 -1.4375 10.6875 C-1.68048828 11.38939453 -1.92347656 12.09128906 -2.17382812 12.81445312 C-2.7744944 14.54578532 -3.38619719 16.27328137 -4 18 C-4.66 18 -5.32 18 -6 18 C-6.05429959 16.25034642 -6.09292823 14.50020213 -6.125 12.75 C-6.15980469 11.28820312 -6.15980469 11.28820312 -6.1953125 9.796875 C-5.99660912 6.95144259 -5.57242336 5.35863504 -4 3 C-1.875 2.25 -1.875 2.25 0 2 C0 1.34 0 0.68 0 0 Z " fill="#379DCC" transform="translate(35,112)"/>
<path d="M0 0 C0.66 0.33 1.32 0.66 2 1 C1.67 1.66 1.34 2.32 1 3 C1.66 3.33 2.32 3.66 3 4 C1.3790787 5.17232685 -0.24686833 6.3377077 -1.875 7.5 C-2.77992188 8.1496875 -3.68484375 8.799375 -4.6171875 9.46875 C-7 11 -7 11 -9 11 C-9.33 10.01 -9.66 9.02 -10 8 C-6.91367389 4.7373124 -4.06516496 1.97764782 0 0 Z " fill="#1E559D" transform="translate(262,163)"/>
<path d="M0 0 C0.73605469 0.00451172 1.47210937 0.00902344 2.23046875 0.01367188 C4.02868158 0.02534858 5.82685197 0.04327989 7.625 0.0625 C5.625 3.0625 5.625 3.0625 3.4609375 3.57421875 C2.24277344 3.66123047 2.24277344 3.66123047 1 3.75 C0.18273437 3.81574219 -0.63453125 3.88148438 -1.4765625 3.94921875 C-2.10304688 3.98660156 -2.72953125 4.02398437 -3.375 4.0625 C-3.375 3.7325 -3.375 3.4025 -3.375 3.0625 C-7.005 3.0625 -10.635 3.0625 -14.375 3.0625 C-14.375 2.4025 -14.375 1.7425 -14.375 1.0625 C-9.51770355 0.08950844 -4.9249375 -0.05788805 0 0 Z " fill="#69C9E4" transform="translate(668.375,160.9375)"/>
<path d="M0 0 C1.25240315 3.75720944 0.4357968 4.41050801 -1 8 C-1.45555876 10.66402839 -1.72626593 13.30828164 -2 16 C-1.34 16 -0.68 16 0 16 C-0.48828125 22.0546875 -0.48828125 22.0546875 -1 24 C-1.99 24.66 -2.98 25.32 -4 26 C-4.30615054 17.20667615 -4.3580774 7.89214857 0 0 Z " fill="#1773B7" transform="translate(633,177)"/>
<path d="M0 0 C4.37823917 -0.04938149 8.75633146 -0.0857104 13.13476562 -0.10986328 C14.6247032 -0.11993043 16.11462097 -0.13358518 17.60449219 -0.15087891 C19.74419028 -0.17509653 21.88362753 -0.18647564 24.0234375 -0.1953125 C25.31169434 -0.20578613 26.59995117 -0.21625977 27.92724609 -0.22705078 C31 0 31 0 33 2 C30.55420823 4.30925485 29.40557866 4.99001814 25.984375 5.07421875 C24.38335938 4.88279297 24.38335938 4.88279297 22.75 4.6875 C21.13351562 4.50767578 21.13351562 4.50767578 19.484375 4.32421875 C18.25460937 4.16373047 18.25460937 4.16373047 17 4 C17 3.67 17 3.34 17 3 C22.94 2.505 22.94 2.505 29 2 C19.43 1.67 9.86 1.34 0 1 C0 0.67 0 0.34 0 0 Z " fill="#1978B4" transform="translate(920,160)"/>
<path d="M0 0 C0.99 0.33 1.98 0.66 3 1 C3 7.6 3 14.2 3 21 C2.67 20.34 2.34 19.68 2 19 C1.34 19 0.68 19 0 19 C0 12.73 0 6.46 0 0 Z " fill="#32A0D1" transform="translate(362,107)"/>
<path d="M0 0 C3.37645575 3.54527854 3.34899963 6.2758681 3.25 11.0625 C3.23904297 11.72064697 3.22808594 12.37879395 3.21679688 13.05688477 C3.09021042 18.7305723 2.65607618 24.3647742 2 30 C1.67 30 1.34 30 1 30 C-0.09945892 19.98707052 -0.10055982 10.05598201 0 0 Z " fill="#3094CA" transform="translate(1048,160)"/>
<path d="M0 0 C0.66 0.33 1.32 0.66 2 1 C-2.66666667 6.33333333 -7.33333333 11.66666667 -12 17 C-12.99 16.67 -13.98 16.34 -15 16 C-10.13036358 10.52436438 -5.24944351 5.1148424 0 0 Z " fill="#3279B9" transform="translate(51,70)"/>
<path d="M0 0 C0.33 0 0.66 0 1 0 C1.12825004 10.71600323 0.79585256 21.312837 0 32 C-0.33 32 -0.66 32 -1 32 C-1.22582973 27.41735239 -1.42764772 22.83395534 -1.625 18.25 C-1.68945312 16.94804687 -1.75390625 15.64609375 -1.8203125 14.3046875 C-1.871875 13.05429688 -1.9234375 11.80390625 -1.9765625 10.515625 C-2.02893066 9.36352539 -2.08129883 8.21142578 -2.13525391 7.02441406 C-2.00232679 4.05202941 -1.56412152 2.4876472 0 0 Z " fill="#3396CA" transform="translate(810,168)"/>
<path d="M0 0 C0.66 0.33 1.32 0.66 2 1 C1.52949219 1.53109375 1.05898438 2.0621875 0.57421875 2.609375 C-0.04839844 3.31578125 -0.67101562 4.0221875 -1.3125 4.75 C-1.92738281 5.44609375 -2.54226563 6.1421875 -3.17578125 6.859375 C-5.02916165 8.96978683 -5.02916165 8.96978683 -6.60546875 11.265625 C-7.06566406 11.83796875 -7.52585937 12.4103125 -8 13 C-8.66 13 -9.32 13 -10 13 C-9.67 13.99 -9.34 14.98 -9 16 C-9.99 16.33 -10.98 16.66 -12 17 C-10.36283575 9.72371445 -5.13658655 5.07375369 0 0 Z " fill="#2C77BB" transform="translate(433,162)"/>
<path d="M0 0 C0.66 0.33 1.32 0.66 2 1 C-1.86364295 5.48717034 -5.74790208 9.87675353 -10 14 C-10 10.48336589 -9.33674513 9.72723127 -7.25 7 C-6.73953125 6.319375 -6.2290625 5.63875 -5.703125 4.9375 C-3.9615857 2.95629933 -2.16012005 1.50269221 0 0 Z " fill="#3678B7" transform="translate(639,162)"/>
<path d="M0 0 C0.66 0.33 1.32 0.66 2 1 C1.37955811 1.55929199 1.37955811 1.55929199 0.74658203 2.12988281 C-1.13292567 3.83046518 -3.00398009 5.54008552 -4.875 7.25 C-5.52597656 7.83652344 -6.17695312 8.42304687 -6.84765625 9.02734375 C-7.78544922 9.88779297 -7.78544922 9.88779297 -8.7421875 10.765625 C-9.3182373 11.28930664 -9.89428711 11.81298828 -10.48779297 12.35253906 C-12.10897894 14.11872617 -13.03298909 15.8169625 -14 18 C-14.33 17.01 -14.66 16.02 -15 15 C-11.21586463 9.09931433 -5.34429752 4.44201352 0 0 Z " fill="#6DC4E4" transform="translate(87,96)"/>
<path d="M0 0 C5.94 0 11.88 0 18 0 C17.67 0.99 17.34 1.98 17 3 C13.04 3 9.08 3 5 3 C5 2.67 5 2.34 5 2 C3.35 1.67 1.7 1.34 0 1 C0 0.67 0 0.34 0 0 Z " fill="#1972B5" transform="translate(231,57)"/>
<path d="M0 0 C0.33 0.66 0.66 1.32 1 2 C0.04367001 3.29315061 -0.91513851 4.58446853 -1.875 5.875 C-2.40867187 6.59429687 -2.94234375 7.31359375 -3.4921875 8.0546875 C-5 10 -5 10 -7 12 C-7.99 11.67 -8.98 11.34 -10 11 C-6.7 7.37 -3.4 3.74 0 0 Z " fill="#4686C0" transform="translate(907,167)"/>
<path d="M0 0 C0.66 0.99 1.32 1.98 2 3 C0.88121617 4.17262904 -0.24523051 5.33795138 -1.375 6.5 C-2.00148438 7.1496875 -2.62796875 7.799375 -3.2734375 8.46875 C-5 10 -5 10 -7 10 C-7 10.66 -7 11.32 -7 12 C-7.66 11.67 -8.32 11.34 -9 11 C-8.51789062 10.45730469 -8.03578125 9.91460937 -7.5390625 9.35546875 C-6.90742187 8.64003906 -6.27578125 7.92460937 -5.625 7.1875 C-4.68527344 6.12595703 -4.68527344 6.12595703 -3.7265625 5.04296875 C-1.859401 2.91196181 -1.859401 2.91196181 0 0 Z " fill="#3F82C1" transform="translate(896,179)"/>
<path d="M0 0 C9.59453303 5.0022779 9.59453303 5.0022779 13 9 C9.62537285 8.45276317 7.91765 7.9451 5 6 C5 5.34 5 4.68 5 4 C3.35 3.67 1.7 3.34 0 3 C0 2.01 0 1.02 0 0 Z " fill="#3C87C1" transform="translate(115,132)"/>
<path d="M0 0 C-0.33 0.66 -0.66 1.32 -1 2 C-3.33247815 2.62852934 -5.69291467 3.15535246 -8.0625 3.625 C-9.35285156 3.88539062 -10.64320312 4.14578125 -11.97265625 4.4140625 C-12.97167969 4.60742188 -13.97070312 4.80078125 -15 5 C-15 4.34 -15 3.68 -15 3 C-13.44033782 2.491217 -11.87710759 1.99336531 -10.3125 1.5 C-9.44238281 1.2215625 -8.57226562 0.943125 -7.67578125 0.65625 C-5.00608323 0.00149195 -2.73603316 -0.11831495 0 0 Z " fill="#9DDFF2" transform="translate(94,60)"/>
<path d="M0 0 C1.98 0.99 1.98 0.99 4 2 C3.34 4.97 2.68 7.94 2 11 C1.34 11 0.68 11 0 11 C0 7.37 0 3.74 0 0 Z " fill="#2C91C5" transform="translate(29,119)"/>
<path d="M0 0 C0.66 0.33 1.32 0.66 2 1 C-1.63 4.96 -5.26 8.92 -9 13 C-9 9.26130751 -8.09514308 8.63449295 -5.625 5.9375 C-4.99851562 5.24527344 -4.37203125 4.55304688 -3.7265625 3.83984375 C-2.50602933 2.53923035 -1.26120903 1.26120903 0 0 Z " fill="#3EA5D3" transform="translate(54,84)"/>
<path d="M0 0 C2.475 0.495 2.475 0.495 5 1 C5.33 1.99 5.66 2.98 6 4 C5.67 4.66 5.34 5.32 5 6 C3.68 6 2.36 6 1 6 C0.67 4.02 0.34 2.04 0 0 Z " fill="#2763A7" transform="translate(103,140)"/>
<path d="M0 0 C0.33 0 0.66 0 1 0 C0.67 2.97 0.34 5.94 0 9 C-0.66 9 -1.32 9 -2 9 C-2 11.31 -2 13.62 -2 16 C-2.33 16 -2.66 16 -3 16 C-3.33266291 9.79029227 -2.45029331 5.71735105 0 0 Z " fill="#4D87BD" transform="translate(627,177)"/>
<path d="M0 0 C0.33 1.32 0.66 2.64 1 4 C2.98 3.67 4.96 3.34 7 3 C6.67 3.66 6.34 4.32 6 5 C5.34 4.67 4.68 4.34 4 4 C4.66 5.65 5.32 7.3 6 9 C5.01 9 4.02 9 3 9 C0.72162458 6.72162458 0.03353711 5.49187763 -0.1875 2.25 C-0.125625 1.5075 -0.06375 0.765 0 0 Z " fill="#4673A9" transform="translate(228,171)"/>
<path d="M0 0 C0.66 0.33 1.32 0.66 2 1 C0.02 3.31 -1.96 5.62 -4 8 C-4.99 7.67 -5.98 7.34 -7 7 C-4.69 4.69 -2.38 2.38 0 0 Z " fill="#3A77B3" transform="translate(1119,162)"/>
<path d="M0 0 C-1.45537568 0.83848804 -2.91440373 1.67063934 -4.375 2.5 C-5.59316406 3.19609375 -5.59316406 3.19609375 -6.8359375 3.90625 C-9 5 -9 5 -11 5 C-10 2 -10 2 -6.625 0.25 C-3 -1 -3 -1 0 0 Z " fill="#53B7DC" transform="translate(654,164)"/>
<path d="M0 0 C0.99 0.33 1.98 0.66 3 1 C2.67 1.66 2.34 2.32 2 3 C-2.95 3 -7.9 3 -13 3 C-13 2.67 -13 2.34 -13 2 C-8.71 2 -4.42 2 0 2 C0 1.34 0 0.68 0 0 Z " fill="#1875B5" transform="translate(562,161)"/>
<path d="M0 0 C1.25541557 3.76624671 0.37061958 5.37188934 -1 9 C-1.66 9 -2.32 9 -3 9 C-2.5020163 5.26512223 -2.12508244 3.18762365 0 0 Z " fill="#3363A0" transform="translate(461,191)"/>
<path d="M0 0 C0.33 0.99 0.66 1.98 1 3 C1.66 3.33 2.32 3.66 3 4 C1.68 4.99 0.36 5.98 -1 7 C-1.04254356 5.00045254 -1.04080783 2.99958364 -1 1 C-0.67 0.67 -0.34 0.34 0 0 Z " fill="#1B7EBC" transform="translate(180,188)"/>
<path d="M0 0 C0.33 1.32 0.66 2.64 1 4 C0.01 4.33 -0.98 4.66 -2 5 C-1.67 5.99 -1.34 6.98 -1 8 C-1.99 8.33 -2.98 8.66 -4 9 C-2.94124926 5.59687262 -1.99097846 2.98646769 0 0 Z " fill="#3F83C3" transform="translate(425,170)"/>
<path d="M0 0 C0.99 0.33 1.98 0.66 3 1 C2.34 2.32 1.68 3.64 1 5 C-0.65 4.67 -2.3 4.34 -4 4 C-2.68 2.68 -1.36 1.36 0 0 Z " fill="#3982BB" transform="translate(262,147)"/>
<path d="M0 0 C0.66 0.33 1.32 0.66 2 1 C-0.12055614 4.1808342 -1.63050557 5.31525278 -5 7 C-5.66 6.67 -6.32 6.34 -7 6 C-4.69 4.02 -2.38 2.04 0 0 Z " fill="#4685C4" transform="translate(185,175)"/>
<path d="M0 0 C-3.4019487 2.09350689 -6.05272412 2.17942163 -10 2 C-6.80505194 -1.19494806 -4.22040044 -1.35655728 0 0 Z " fill="#82D2ED" transform="translate(108,90)"/>
</svg>
